<mxfile host="Electron" modified="2023-05-13T20:32:29.296Z" agent="Mozilla/5.0 (Macintosh; Intel Mac OS X 10_15_7) AppleWebKit/537.36 (KHTML, like Gecko) draw.io/21.2.1 Chrome/112.0.5615.87 Electron/24.1.2 Safari/537.36" etag="Kz6HuC5te9gjDOgeYI2s" version="21.2.1" type="device">
  <diagram name="mind map" id="l41bUVf6SyhE0lDYbb4z">
    <mxGraphModel dx="4807" dy="3622" grid="1" gridSize="10" guides="1" tooltips="1" connect="1" arrows="1" fold="1" page="1" pageScale="1" pageWidth="827" pageHeight="1169" background="#ffffff" math="0" shadow="1">
      <root>
        <mxCell id="0" />
        <mxCell id="1" parent="0" />
        <mxCell id="hRDZXHe7MTuxdJLK6Rt7-20" value="&lt;p class=&quot;p1&quot;&gt;&lt;br&gt;&lt;/p&gt;" style="text;whiteSpace=wrap;html=1;" parent="1" vertex="1">
          <mxGeometry x="680" y="750" width="240" height="60" as="geometry" />
        </mxCell>
        <mxCell id="hRDZXHe7MTuxdJLK6Rt7-25" value="&lt;p class=&quot;p1&quot;&gt;&lt;br&gt;&lt;/p&gt;" style="text;whiteSpace=wrap;html=1;" parent="1" vertex="1">
          <mxGeometry x="1440" y="-80" width="310" height="60" as="geometry" />
        </mxCell>
        <mxCell id="hRDZXHe7MTuxdJLK6Rt7-28" value="&lt;p class=&quot;p1&quot;&gt;&lt;br&gt;&lt;/p&gt;" style="text;whiteSpace=wrap;html=1;" parent="1" vertex="1">
          <mxGeometry x="80" y="4020" width="290" height="3020" as="geometry" />
        </mxCell>
        <mxCell id="hRDZXHe7MTuxdJLK6Rt7-118" style="edgeStyle=orthogonalEdgeStyle;curved=1;rounded=0;orthogonalLoop=1;jettySize=auto;html=1;entryX=0;entryY=0.5;entryDx=0;entryDy=0;" parent="1" source="hRDZXHe7MTuxdJLK6Rt7-108" target="hRDZXHe7MTuxdJLK6Rt7-109" edge="1">
          <mxGeometry relative="1" as="geometry" />
        </mxCell>
        <mxCell id="hRDZXHe7MTuxdJLK6Rt7-119" style="edgeStyle=orthogonalEdgeStyle;curved=1;rounded=0;orthogonalLoop=1;jettySize=auto;html=1;entryX=0;entryY=0.5;entryDx=0;entryDy=0;" parent="1" source="hRDZXHe7MTuxdJLK6Rt7-108" target="hRDZXHe7MTuxdJLK6Rt7-120" edge="1">
          <mxGeometry relative="1" as="geometry">
            <mxPoint x="620" y="2250" as="targetPoint" />
          </mxGeometry>
        </mxCell>
        <mxCell id="hRDZXHe7MTuxdJLK6Rt7-123" style="edgeStyle=orthogonalEdgeStyle;curved=1;rounded=0;orthogonalLoop=1;jettySize=auto;html=1;entryX=0;entryY=0.5;entryDx=0;entryDy=0;" parent="1" source="hRDZXHe7MTuxdJLK6Rt7-108" target="hRDZXHe7MTuxdJLK6Rt7-121" edge="1">
          <mxGeometry relative="1" as="geometry" />
        </mxCell>
        <mxCell id="hRDZXHe7MTuxdJLK6Rt7-239" style="edgeStyle=orthogonalEdgeStyle;curved=1;rounded=0;orthogonalLoop=1;jettySize=auto;html=1;entryX=0.5;entryY=1;entryDx=0;entryDy=0;" parent="1" source="hRDZXHe7MTuxdJLK6Rt7-108" target="hRDZXHe7MTuxdJLK6Rt7-238" edge="1">
          <mxGeometry relative="1" as="geometry" />
        </mxCell>
        <mxCell id="hRDZXHe7MTuxdJLK6Rt7-552" style="edgeStyle=orthogonalEdgeStyle;curved=1;rounded=0;orthogonalLoop=1;jettySize=auto;html=1;" parent="1" source="hRDZXHe7MTuxdJLK6Rt7-108" target="hRDZXHe7MTuxdJLK6Rt7-122" edge="1">
          <mxGeometry relative="1" as="geometry" />
        </mxCell>
        <mxCell id="hRDZXHe7MTuxdJLK6Rt7-108" value="Комментарии" style="rounded=1;whiteSpace=wrap;html=1;fillColor=#FFF3F0;" parent="1" vertex="1">
          <mxGeometry x="385" y="2130" width="120" height="60" as="geometry" />
        </mxCell>
        <mxCell id="hRDZXHe7MTuxdJLK6Rt7-129" value="" style="edgeStyle=orthogonalEdgeStyle;curved=1;rounded=0;orthogonalLoop=1;jettySize=auto;html=1;fillColor=#EDFDFF;" parent="1" source="hRDZXHe7MTuxdJLK6Rt7-109" target="hRDZXHe7MTuxdJLK6Rt7-128" edge="1">
          <mxGeometry relative="1" as="geometry">
            <Array as="points">
              <mxPoint x="755" y="1810" />
              <mxPoint x="755" y="1760" />
            </Array>
          </mxGeometry>
        </mxCell>
        <mxCell id="hRDZXHe7MTuxdJLK6Rt7-240" style="edgeStyle=orthogonalEdgeStyle;curved=1;rounded=0;orthogonalLoop=1;jettySize=auto;html=1;entryX=0;entryY=0.5;entryDx=0;entryDy=0;fillColor=#EDFDFF;" parent="1" source="hRDZXHe7MTuxdJLK6Rt7-109" target="hRDZXHe7MTuxdJLK6Rt7-111" edge="1">
          <mxGeometry relative="1" as="geometry" />
        </mxCell>
        <mxCell id="hRDZXHe7MTuxdJLK6Rt7-109" value="Строка &quot;поиск&quot;" style="whiteSpace=wrap;html=1;rounded=1;fillColor=#EDFDFF;" parent="1" vertex="1">
          <mxGeometry x="595" y="1770" width="120" height="60" as="geometry" />
        </mxCell>
        <mxCell id="hRDZXHe7MTuxdJLK6Rt7-127" value="" style="edgeStyle=orthogonalEdgeStyle;curved=1;rounded=0;orthogonalLoop=1;jettySize=auto;html=1;fillColor=#EDFDFF;" parent="1" source="hRDZXHe7MTuxdJLK6Rt7-111" target="hRDZXHe7MTuxdJLK6Rt7-126" edge="1">
          <mxGeometry relative="1" as="geometry" />
        </mxCell>
        <mxCell id="hRDZXHe7MTuxdJLK6Rt7-111" value="Поиск слов совпадений в теле комментария" style="whiteSpace=wrap;html=1;rounded=1;fillColor=#EDFDFF;" parent="1" vertex="1">
          <mxGeometry x="760" y="1650" width="120" height="60" as="geometry" />
        </mxCell>
        <mxCell id="hRDZXHe7MTuxdJLK6Rt7-133" value="" style="edgeStyle=orthogonalEdgeStyle;curved=1;rounded=0;orthogonalLoop=1;jettySize=auto;html=1;fillColor=#F7F0FF;" parent="1" source="hRDZXHe7MTuxdJLK6Rt7-120" target="hRDZXHe7MTuxdJLK6Rt7-132" edge="1">
          <mxGeometry relative="1" as="geometry" />
        </mxCell>
        <mxCell id="hRDZXHe7MTuxdJLK6Rt7-242" style="edgeStyle=orthogonalEdgeStyle;curved=1;rounded=0;orthogonalLoop=1;jettySize=auto;html=1;entryX=0;entryY=0.5;entryDx=0;entryDy=0;fillColor=#F7F0FF;" parent="1" source="hRDZXHe7MTuxdJLK6Rt7-120" target="hRDZXHe7MTuxdJLK6Rt7-241" edge="1">
          <mxGeometry relative="1" as="geometry" />
        </mxCell>
        <mxCell id="hRDZXHe7MTuxdJLK6Rt7-243" style="edgeStyle=orthogonalEdgeStyle;curved=1;rounded=0;orthogonalLoop=1;jettySize=auto;html=1;entryX=0;entryY=0.5;entryDx=0;entryDy=0;fillColor=#F7F0FF;" parent="1" source="hRDZXHe7MTuxdJLK6Rt7-120" target="hRDZXHe7MTuxdJLK6Rt7-136" edge="1">
          <mxGeometry relative="1" as="geometry" />
        </mxCell>
        <mxCell id="hRDZXHe7MTuxdJLK6Rt7-120" value="Непроверенные" style="rounded=1;whiteSpace=wrap;html=1;fillColor=#F7F0FF;" parent="1" vertex="1">
          <mxGeometry x="620" y="1920" width="120" height="60" as="geometry" />
        </mxCell>
        <mxCell id="hRDZXHe7MTuxdJLK6Rt7-139" value="" style="edgeStyle=orthogonalEdgeStyle;curved=1;rounded=0;orthogonalLoop=1;jettySize=auto;html=1;fillColor=#FFF2CC;" parent="1" source="hRDZXHe7MTuxdJLK6Rt7-121" target="hRDZXHe7MTuxdJLK6Rt7-138" edge="1">
          <mxGeometry relative="1" as="geometry" />
        </mxCell>
        <mxCell id="hRDZXHe7MTuxdJLK6Rt7-121" value="Проверенные" style="rounded=1;whiteSpace=wrap;html=1;fillColor=#FFF2CC;" parent="1" vertex="1">
          <mxGeometry x="610" y="2130" width="120" height="60" as="geometry" />
        </mxCell>
        <mxCell id="hRDZXHe7MTuxdJLK6Rt7-554" style="edgeStyle=orthogonalEdgeStyle;curved=1;rounded=0;orthogonalLoop=1;jettySize=auto;html=1;entryX=0.5;entryY=0;entryDx=0;entryDy=0;fillColor=#E6DFE3;" parent="1" source="hRDZXHe7MTuxdJLK6Rt7-122" target="hRDZXHe7MTuxdJLK6Rt7-553" edge="1">
          <mxGeometry relative="1" as="geometry" />
        </mxCell>
        <mxCell id="hRDZXHe7MTuxdJLK6Rt7-122" value="Типы контента" style="rounded=1;whiteSpace=wrap;html=1;fillColor=#E6DFE3;" parent="1" vertex="1">
          <mxGeometry x="520" y="2420" width="120" height="60" as="geometry" />
        </mxCell>
        <mxCell id="hRDZXHe7MTuxdJLK6Rt7-126" value="Вывод подходящего Списка комментариев" style="whiteSpace=wrap;html=1;rounded=1;fillColor=#EDFDFF;" parent="1" vertex="1">
          <mxGeometry x="925" y="1650" width="120" height="60" as="geometry" />
        </mxCell>
        <mxCell id="hRDZXHe7MTuxdJLK6Rt7-131" value="" style="edgeStyle=orthogonalEdgeStyle;curved=1;rounded=0;orthogonalLoop=1;jettySize=auto;html=1;fillColor=#EDFDFF;" parent="1" source="hRDZXHe7MTuxdJLK6Rt7-128" target="hRDZXHe7MTuxdJLK6Rt7-130" edge="1">
          <mxGeometry relative="1" as="geometry" />
        </mxCell>
        <mxCell id="hRDZXHe7MTuxdJLK6Rt7-128" value="Поиск по автору" style="whiteSpace=wrap;html=1;rounded=1;fillColor=#EDFDFF;" parent="1" vertex="1">
          <mxGeometry x="795" y="1730" width="120" height="60" as="geometry" />
        </mxCell>
        <mxCell id="hRDZXHe7MTuxdJLK6Rt7-130" value="Невозможен" style="whiteSpace=wrap;html=1;rounded=1;fillColor=#EDFDFF;" parent="1" vertex="1">
          <mxGeometry x="960" y="1730" width="120" height="60" as="geometry" />
        </mxCell>
        <mxCell id="hRDZXHe7MTuxdJLK6Rt7-135" value="" style="edgeStyle=orthogonalEdgeStyle;curved=1;rounded=0;orthogonalLoop=1;jettySize=auto;html=1;fillColor=#F7F0FF;" parent="1" source="hRDZXHe7MTuxdJLK6Rt7-132" target="hRDZXHe7MTuxdJLK6Rt7-134" edge="1">
          <mxGeometry relative="1" as="geometry" />
        </mxCell>
        <mxCell id="hRDZXHe7MTuxdJLK6Rt7-132" value="Кликабельна" style="whiteSpace=wrap;html=1;rounded=1;fillColor=#F7F0FF;" parent="1" vertex="1">
          <mxGeometry x="770" y="1820" width="120" height="60" as="geometry" />
        </mxCell>
        <mxCell id="hRDZXHe7MTuxdJLK6Rt7-134" value="При наведении и клике меняет цвет на синий" style="whiteSpace=wrap;html=1;rounded=1;fillColor=#F7F0FF;" parent="1" vertex="1">
          <mxGeometry x="950" y="1820" width="120" height="60" as="geometry" />
        </mxCell>
        <mxCell id="hRDZXHe7MTuxdJLK6Rt7-245" value="" style="edgeStyle=orthogonalEdgeStyle;curved=1;rounded=0;orthogonalLoop=1;jettySize=auto;html=1;fillColor=#F7F0FF;" parent="1" source="hRDZXHe7MTuxdJLK6Rt7-136" target="hRDZXHe7MTuxdJLK6Rt7-244" edge="1">
          <mxGeometry relative="1" as="geometry" />
        </mxCell>
        <mxCell id="hRDZXHe7MTuxdJLK6Rt7-136" value="Отображает ленту с комментариями при. включенном чек боксе &quot;Статьи&quot; в выпадающем списке &quot;Типы контента&quot;" style="whiteSpace=wrap;html=1;rounded=1;fillColor=#F7F0FF;" parent="1" vertex="1">
          <mxGeometry x="885" y="1900" width="140" height="100" as="geometry" />
        </mxCell>
        <mxCell id="hRDZXHe7MTuxdJLK6Rt7-141" value="" style="edgeStyle=orthogonalEdgeStyle;curved=1;rounded=0;orthogonalLoop=1;jettySize=auto;html=1;fillColor=#FFF2CC;" parent="1" source="hRDZXHe7MTuxdJLK6Rt7-138" target="hRDZXHe7MTuxdJLK6Rt7-140" edge="1">
          <mxGeometry relative="1" as="geometry" />
        </mxCell>
        <mxCell id="hRDZXHe7MTuxdJLK6Rt7-138" value="Кликабельна" style="whiteSpace=wrap;html=1;rounded=1;fillColor=#FFF2CC;" parent="1" vertex="1">
          <mxGeometry x="780" y="2130" width="120" height="60" as="geometry" />
        </mxCell>
        <mxCell id="hRDZXHe7MTuxdJLK6Rt7-143" value="" style="edgeStyle=orthogonalEdgeStyle;curved=1;rounded=0;orthogonalLoop=1;jettySize=auto;html=1;fillColor=#FFF2CC;" parent="1" source="hRDZXHe7MTuxdJLK6Rt7-140" target="hRDZXHe7MTuxdJLK6Rt7-142" edge="1">
          <mxGeometry relative="1" as="geometry" />
        </mxCell>
        <mxCell id="hRDZXHe7MTuxdJLK6Rt7-140" value="При наведении и клике меняет цвет на синий" style="whiteSpace=wrap;html=1;rounded=1;fillColor=#FFF2CC;" parent="1" vertex="1">
          <mxGeometry x="950" y="2080" width="120" height="60" as="geometry" />
        </mxCell>
        <mxCell id="hRDZXHe7MTuxdJLK6Rt7-377" style="edgeStyle=orthogonalEdgeStyle;curved=1;rounded=0;orthogonalLoop=1;jettySize=auto;html=1;entryX=1;entryY=0.5;entryDx=0;entryDy=0;fillColor=#FFF2CC;" parent="1" source="hRDZXHe7MTuxdJLK6Rt7-142" target="hRDZXHe7MTuxdJLK6Rt7-372" edge="1">
          <mxGeometry relative="1" as="geometry" />
        </mxCell>
        <mxCell id="hRDZXHe7MTuxdJLK6Rt7-381" style="edgeStyle=orthogonalEdgeStyle;curved=1;rounded=0;orthogonalLoop=1;jettySize=auto;html=1;entryX=0;entryY=0.5;entryDx=0;entryDy=0;fillColor=#FFF2CC;" parent="1" source="hRDZXHe7MTuxdJLK6Rt7-142" target="hRDZXHe7MTuxdJLK6Rt7-371" edge="1">
          <mxGeometry relative="1" as="geometry" />
        </mxCell>
        <mxCell id="hRDZXHe7MTuxdJLK6Rt7-142" value="При клике выводит ленту с&amp;nbsp; одобренными комментариями" style="whiteSpace=wrap;html=1;rounded=1;fillColor=#FFF2CC;" parent="1" vertex="1">
          <mxGeometry x="1121" y="2140" width="120" height="60" as="geometry" />
        </mxCell>
        <mxCell id="hRDZXHe7MTuxdJLK6Rt7-559" style="edgeStyle=orthogonalEdgeStyle;curved=1;rounded=0;orthogonalLoop=1;jettySize=auto;html=1;entryX=0.5;entryY=1;entryDx=0;entryDy=0;fillColor=#E6DFE3;" parent="1" source="hRDZXHe7MTuxdJLK6Rt7-144" target="hRDZXHe7MTuxdJLK6Rt7-146" edge="1">
          <mxGeometry relative="1" as="geometry" />
        </mxCell>
        <mxCell id="hRDZXHe7MTuxdJLK6Rt7-560" style="edgeStyle=orthogonalEdgeStyle;curved=1;rounded=0;orthogonalLoop=1;jettySize=auto;html=1;entryX=0.5;entryY=1;entryDx=0;entryDy=0;fillColor=#E6DFE3;" parent="1" source="hRDZXHe7MTuxdJLK6Rt7-144" target="hRDZXHe7MTuxdJLK6Rt7-154" edge="1">
          <mxGeometry relative="1" as="geometry" />
        </mxCell>
        <mxCell id="hRDZXHe7MTuxdJLK6Rt7-562" style="edgeStyle=orthogonalEdgeStyle;curved=1;rounded=0;orthogonalLoop=1;jettySize=auto;html=1;entryX=0;entryY=0.5;entryDx=0;entryDy=0;" parent="1" source="hRDZXHe7MTuxdJLK6Rt7-144" target="hRDZXHe7MTuxdJLK6Rt7-152" edge="1">
          <mxGeometry relative="1" as="geometry" />
        </mxCell>
        <mxCell id="hRDZXHe7MTuxdJLK6Rt7-563" style="edgeStyle=orthogonalEdgeStyle;curved=1;rounded=0;orthogonalLoop=1;jettySize=auto;html=1;entryX=0;entryY=0.5;entryDx=0;entryDy=0;" parent="1" source="hRDZXHe7MTuxdJLK6Rt7-144" target="hRDZXHe7MTuxdJLK6Rt7-151" edge="1">
          <mxGeometry relative="1" as="geometry" />
        </mxCell>
        <mxCell id="hRDZXHe7MTuxdJLK6Rt7-564" style="edgeStyle=orthogonalEdgeStyle;curved=1;rounded=0;orthogonalLoop=1;jettySize=auto;html=1;entryX=0;entryY=0.5;entryDx=0;entryDy=0;fillColor=#E6DFE3;" parent="1" source="hRDZXHe7MTuxdJLK6Rt7-144" target="hRDZXHe7MTuxdJLK6Rt7-153" edge="1">
          <mxGeometry relative="1" as="geometry" />
        </mxCell>
        <mxCell id="hRDZXHe7MTuxdJLK6Rt7-566" style="edgeStyle=orthogonalEdgeStyle;curved=1;rounded=0;orthogonalLoop=1;jettySize=auto;html=1;fillColor=#E6DFE3;" parent="1" source="hRDZXHe7MTuxdJLK6Rt7-144" target="hRDZXHe7MTuxdJLK6Rt7-156" edge="1">
          <mxGeometry relative="1" as="geometry" />
        </mxCell>
        <mxCell id="hRDZXHe7MTuxdJLK6Rt7-567" style="edgeStyle=orthogonalEdgeStyle;curved=1;rounded=0;orthogonalLoop=1;jettySize=auto;html=1;fillColor=#E6DFE3;" parent="1" source="hRDZXHe7MTuxdJLK6Rt7-144" target="hRDZXHe7MTuxdJLK6Rt7-155" edge="1">
          <mxGeometry relative="1" as="geometry" />
        </mxCell>
        <mxCell id="hRDZXHe7MTuxdJLK6Rt7-568" style="edgeStyle=orthogonalEdgeStyle;curved=1;rounded=0;orthogonalLoop=1;jettySize=auto;html=1;entryX=0;entryY=0.5;entryDx=0;entryDy=0;" parent="1" source="hRDZXHe7MTuxdJLK6Rt7-144" target="hRDZXHe7MTuxdJLK6Rt7-157" edge="1">
          <mxGeometry relative="1" as="geometry" />
        </mxCell>
        <mxCell id="hRDZXHe7MTuxdJLK6Rt7-572" style="edgeStyle=orthogonalEdgeStyle;curved=1;rounded=0;orthogonalLoop=1;jettySize=auto;html=1;fillColor=#E6DFE3;" parent="1" source="hRDZXHe7MTuxdJLK6Rt7-144" target="hRDZXHe7MTuxdJLK6Rt7-570" edge="1">
          <mxGeometry relative="1" as="geometry" />
        </mxCell>
        <mxCell id="GKr-sdPwbZHeb-XJPqWH-4" style="edgeStyle=orthogonalEdgeStyle;curved=1;rounded=0;orthogonalLoop=1;jettySize=auto;html=1;entryX=0.5;entryY=0;entryDx=0;entryDy=0;exitX=1;exitY=0.5;exitDx=0;exitDy=0;fillColor=#E6DFE3;" parent="1" source="hRDZXHe7MTuxdJLK6Rt7-144" target="GKr-sdPwbZHeb-XJPqWH-1" edge="1">
          <mxGeometry relative="1" as="geometry" />
        </mxCell>
        <mxCell id="hRDZXHe7MTuxdJLK6Rt7-144" value="Чекбокс по умолчанию выбран" style="whiteSpace=wrap;html=1;rounded=1;fillColor=#E6DFE3;" parent="1" vertex="1">
          <mxGeometry x="790" y="2594.23" width="120" height="60" as="geometry" />
        </mxCell>
        <mxCell id="hRDZXHe7MTuxdJLK6Rt7-146" value="Картотека консультанта" style="whiteSpace=wrap;html=1;rounded=1;fillColor=#E6DFE3;" parent="1" vertex="1">
          <mxGeometry x="920" y="2440" width="120" height="60" as="geometry" />
        </mxCell>
        <mxCell id="hRDZXHe7MTuxdJLK6Rt7-151" value="Книга" style="rounded=1;whiteSpace=wrap;html=1;fillColor=#E6DFE3;" parent="1" vertex="1">
          <mxGeometry x="1340" y="2700" width="120" height="60" as="geometry" />
        </mxCell>
        <mxCell id="hRDZXHe7MTuxdJLK6Rt7-152" value="Задания" style="rounded=1;whiteSpace=wrap;html=1;fillColor=#E6DFE3;" parent="1" vertex="1">
          <mxGeometry x="1310" y="2630" width="120" height="60" as="geometry" />
        </mxCell>
        <mxCell id="hRDZXHe7MTuxdJLK6Rt7-153" value="Дистанции" style="rounded=1;whiteSpace=wrap;html=1;fillColor=#E6DFE3;" parent="1" vertex="1">
          <mxGeometry x="1160" y="2590" width="120" height="60" as="geometry" />
        </mxCell>
        <mxCell id="hRDZXHe7MTuxdJLK6Rt7-154" value="Главы" style="rounded=1;whiteSpace=wrap;html=1;fillColor=#E6DFE3;" parent="1" vertex="1">
          <mxGeometry x="1020" y="2510" width="120" height="60" as="geometry" />
        </mxCell>
        <mxCell id="hRDZXHe7MTuxdJLK6Rt7-155" value="Справки" style="rounded=1;whiteSpace=wrap;html=1;fillColor=#E6DFE3;" parent="1" vertex="1">
          <mxGeometry x="980" y="2730" width="120" height="60" as="geometry" />
        </mxCell>
        <mxCell id="hRDZXHe7MTuxdJLK6Rt7-156" value="Спринты" style="rounded=1;whiteSpace=wrap;html=1;fillColor=#E6DFE3;" parent="1" vertex="1">
          <mxGeometry x="1070" y="2810" width="120" height="60" as="geometry" />
        </mxCell>
        <mxCell id="hRDZXHe7MTuxdJLK6Rt7-157" value="Упражнения" style="rounded=1;whiteSpace=wrap;html=1;fillColor=#E6DFE3;" parent="1" vertex="1">
          <mxGeometry x="1340" y="2770" width="120" height="60" as="geometry" />
        </mxCell>
        <mxCell id="hRDZXHe7MTuxdJLK6Rt7-571" style="edgeStyle=orthogonalEdgeStyle;curved=1;rounded=0;orthogonalLoop=1;jettySize=auto;html=1;entryX=0.5;entryY=0;entryDx=0;entryDy=0;fillColor=#E6DFE3;" parent="1" source="hRDZXHe7MTuxdJLK6Rt7-174" target="hRDZXHe7MTuxdJLK6Rt7-570" edge="1">
          <mxGeometry relative="1" as="geometry" />
        </mxCell>
        <mxCell id="hRDZXHe7MTuxdJLK6Rt7-573" style="edgeStyle=orthogonalEdgeStyle;curved=1;rounded=0;orthogonalLoop=1;jettySize=auto;html=1;fillColor=#E6DFE3;" parent="1" source="hRDZXHe7MTuxdJLK6Rt7-174" target="hRDZXHe7MTuxdJLK6Rt7-177" edge="1">
          <mxGeometry relative="1" as="geometry" />
        </mxCell>
        <mxCell id="hRDZXHe7MTuxdJLK6Rt7-174" value="Чекбокс по умолчанию не выбран" style="rounded=1;whiteSpace=wrap;html=1;fillColor=#E6DFE3;" parent="1" vertex="1">
          <mxGeometry x="570" y="2590" width="120" height="60" as="geometry" />
        </mxCell>
        <mxCell id="hRDZXHe7MTuxdJLK6Rt7-177" value="Статьи" style="rounded=1;whiteSpace=wrap;html=1;fillColor=#E6DFE3;" parent="1" vertex="1">
          <mxGeometry x="399" y="2670" width="120" height="60" as="geometry" />
        </mxCell>
        <mxCell id="hRDZXHe7MTuxdJLK6Rt7-290" style="edgeStyle=orthogonalEdgeStyle;curved=1;rounded=0;orthogonalLoop=1;jettySize=auto;html=1;entryX=1.002;entryY=0.413;entryDx=0;entryDy=0;exitX=0.5;exitY=0;exitDx=0;exitDy=0;entryPerimeter=0;fillColor=#F7F0FF;" parent="1" source="hRDZXHe7MTuxdJLK6Rt7-187" target="hRDZXHe7MTuxdJLK6Rt7-286" edge="1">
          <mxGeometry relative="1" as="geometry" />
        </mxCell>
        <mxCell id="hRDZXHe7MTuxdJLK6Rt7-291" style="edgeStyle=orthogonalEdgeStyle;curved=1;rounded=0;orthogonalLoop=1;jettySize=auto;html=1;entryX=0.5;entryY=1;entryDx=0;entryDy=0;fillColor=#F7F0FF;" parent="1" source="hRDZXHe7MTuxdJLK6Rt7-187" target="hRDZXHe7MTuxdJLK6Rt7-287" edge="1">
          <mxGeometry relative="1" as="geometry" />
        </mxCell>
        <mxCell id="hRDZXHe7MTuxdJLK6Rt7-187" value="одобрить" style="whiteSpace=wrap;html=1;rounded=1;fillColor=#F7F0FF;" parent="1" vertex="1">
          <mxGeometry x="1720" y="1610" width="120" height="60" as="geometry" />
        </mxCell>
        <mxCell id="hRDZXHe7MTuxdJLK6Rt7-306" style="edgeStyle=orthogonalEdgeStyle;curved=1;rounded=0;orthogonalLoop=1;jettySize=auto;html=1;entryX=0.5;entryY=1;entryDx=0;entryDy=0;fillColor=#F7F0FF;" parent="1" source="hRDZXHe7MTuxdJLK6Rt7-189" target="hRDZXHe7MTuxdJLK6Rt7-295" edge="1">
          <mxGeometry relative="1" as="geometry" />
        </mxCell>
        <mxCell id="hRDZXHe7MTuxdJLK6Rt7-189" value="редактировть" style="whiteSpace=wrap;html=1;rounded=1;fillColor=#F7F0FF;" parent="1" vertex="1">
          <mxGeometry x="1810" y="1540" width="120" height="60" as="geometry" />
        </mxCell>
        <mxCell id="hRDZXHe7MTuxdJLK6Rt7-351" style="edgeStyle=orthogonalEdgeStyle;curved=1;rounded=0;orthogonalLoop=1;jettySize=auto;html=1;entryX=0;entryY=0.5;entryDx=0;entryDy=0;fillColor=#F7F0FF;" parent="1" source="hRDZXHe7MTuxdJLK6Rt7-191" target="hRDZXHe7MTuxdJLK6Rt7-333" edge="1">
          <mxGeometry relative="1" as="geometry" />
        </mxCell>
        <mxCell id="hRDZXHe7MTuxdJLK6Rt7-191" value="удалить" style="whiteSpace=wrap;html=1;rounded=1;fillColor=#F7F0FF;" parent="1" vertex="1">
          <mxGeometry x="1900" y="1620" width="120" height="60" as="geometry" />
        </mxCell>
        <mxCell id="hRDZXHe7MTuxdJLK6Rt7-215" style="edgeStyle=orthogonalEdgeStyle;curved=1;rounded=0;orthogonalLoop=1;jettySize=auto;html=1;entryX=0;entryY=0.5;entryDx=0;entryDy=0;fillColor=#FFFFCC;" parent="1" source="hRDZXHe7MTuxdJLK6Rt7-210" target="hRDZXHe7MTuxdJLK6Rt7-212" edge="1">
          <mxGeometry relative="1" as="geometry" />
        </mxCell>
        <mxCell id="hRDZXHe7MTuxdJLK6Rt7-210" value="Дистантник, тестовый стенд" style="rounded=1;whiteSpace=wrap;html=1;fillColor=#FFFFCC;" parent="1" vertex="1">
          <mxGeometry x="-520" y="2050" width="120" height="60" as="geometry" />
        </mxCell>
        <mxCell id="hRDZXHe7MTuxdJLK6Rt7-237" style="edgeStyle=orthogonalEdgeStyle;curved=1;rounded=0;orthogonalLoop=1;jettySize=auto;html=1;entryX=0;entryY=0.5;entryDx=0;entryDy=0;" parent="1" source="hRDZXHe7MTuxdJLK6Rt7-211" target="hRDZXHe7MTuxdJLK6Rt7-108" edge="1">
          <mxGeometry relative="1" as="geometry" />
        </mxCell>
        <mxCell id="hRDZXHe7MTuxdJLK6Rt7-211" value="Управление" style="rounded=1;whiteSpace=wrap;html=1;fillColor=#FFF3F0;" parent="1" vertex="1">
          <mxGeometry x="200" y="2130" width="120" height="60" as="geometry" />
        </mxCell>
        <mxCell id="hRDZXHe7MTuxdJLK6Rt7-214" value="" style="edgeStyle=orthogonalEdgeStyle;curved=1;rounded=0;orthogonalLoop=1;jettySize=auto;html=1;fillColor=#FFFFCC;" parent="1" source="hRDZXHe7MTuxdJLK6Rt7-212" target="hRDZXHe7MTuxdJLK6Rt7-213" edge="1">
          <mxGeometry relative="1" as="geometry" />
        </mxCell>
        <mxCell id="hRDZXHe7MTuxdJLK6Rt7-212" value="хедер" style="rounded=1;whiteSpace=wrap;html=1;fillColor=#FFFFCC;" parent="1" vertex="1">
          <mxGeometry x="-360" y="1910" width="120" height="60" as="geometry" />
        </mxCell>
        <mxCell id="hRDZXHe7MTuxdJLK6Rt7-223" value="" style="edgeStyle=orthogonalEdgeStyle;curved=1;rounded=0;orthogonalLoop=1;jettySize=auto;html=1;fillColor=#FFFFCC;" parent="1" source="hRDZXHe7MTuxdJLK6Rt7-213" target="hRDZXHe7MTuxdJLK6Rt7-219" edge="1">
          <mxGeometry relative="1" as="geometry" />
        </mxCell>
        <mxCell id="hRDZXHe7MTuxdJLK6Rt7-227" style="edgeStyle=orthogonalEdgeStyle;curved=1;rounded=0;orthogonalLoop=1;jettySize=auto;html=1;entryX=0.5;entryY=1;entryDx=0;entryDy=0;fillColor=#FFFFCC;" parent="1" source="hRDZXHe7MTuxdJLK6Rt7-213" target="hRDZXHe7MTuxdJLK6Rt7-218" edge="1">
          <mxGeometry relative="1" as="geometry" />
        </mxCell>
        <mxCell id="hRDZXHe7MTuxdJLK6Rt7-231" style="edgeStyle=orthogonalEdgeStyle;curved=1;rounded=0;orthogonalLoop=1;jettySize=auto;html=1;entryX=0;entryY=0.5;entryDx=0;entryDy=0;fillColor=#FFFFCC;" parent="1" source="hRDZXHe7MTuxdJLK6Rt7-213" target="hRDZXHe7MTuxdJLK6Rt7-222" edge="1">
          <mxGeometry relative="1" as="geometry" />
        </mxCell>
        <mxCell id="hRDZXHe7MTuxdJLK6Rt7-232" style="edgeStyle=orthogonalEdgeStyle;curved=1;rounded=0;orthogonalLoop=1;jettySize=auto;html=1;fillColor=#FFFFCC;" parent="1" source="hRDZXHe7MTuxdJLK6Rt7-213" target="hRDZXHe7MTuxdJLK6Rt7-228" edge="1">
          <mxGeometry relative="1" as="geometry" />
        </mxCell>
        <mxCell id="hRDZXHe7MTuxdJLK6Rt7-213" value="Клик по иконке &quot;войти&quot;" style="whiteSpace=wrap;html=1;rounded=1;fillColor=#FFFFCC;" parent="1" vertex="1">
          <mxGeometry x="-197.5" y="1910" width="120" height="60" as="geometry" />
        </mxCell>
        <mxCell id="hRDZXHe7MTuxdJLK6Rt7-218" value="Тайтл, &quot;Войти в свой аккаунт&quot;" style="rounded=1;whiteSpace=wrap;html=1;fillColor=#FFFFCC;" parent="1" vertex="1">
          <mxGeometry x="-67.5" y="1790" width="120" height="60" as="geometry" />
        </mxCell>
        <mxCell id="hRDZXHe7MTuxdJLK6Rt7-226" style="edgeStyle=orthogonalEdgeStyle;curved=1;rounded=0;orthogonalLoop=1;jettySize=auto;html=1;entryX=0.5;entryY=1;entryDx=0;entryDy=0;fillColor=#FFFFCC;" parent="1" source="hRDZXHe7MTuxdJLK6Rt7-219" target="hRDZXHe7MTuxdJLK6Rt7-220" edge="1">
          <mxGeometry relative="1" as="geometry" />
        </mxCell>
        <mxCell id="hRDZXHe7MTuxdJLK6Rt7-219" value="E-mail" style="rounded=1;whiteSpace=wrap;html=1;fillColor=#FFFFCC;" parent="1" vertex="1">
          <mxGeometry x="65" y="1860" width="119" height="50" as="geometry" />
        </mxCell>
        <mxCell id="hRDZXHe7MTuxdJLK6Rt7-220" value="&lt;a tabindex=&quot;0&quot; data-token-index=&quot;0&quot; rel=&quot;noopener noreferrer&quot; class=&quot;notion-link-token notion-focusable-token notion-enable-hover&quot; style=&quot;cursor: pointer; overflow-wrap: break-word; font-weight: 600; text-decoration: inherit;&quot; href=&quot;mailto:username_1@example.com&quot;&gt;username_1@example.com&lt;/a&gt;" style="rounded=1;whiteSpace=wrap;html=1;fillColor=#FFFFCC;" parent="1" vertex="1">
          <mxGeometry x="130" y="1754" width="170" height="60" as="geometry" />
        </mxCell>
        <mxCell id="hRDZXHe7MTuxdJLK6Rt7-221" value="&lt;meta charset=&quot;utf-8&quot;&gt;!He_pass" style="rounded=1;whiteSpace=wrap;html=1;fillColor=#FFFFCC;" parent="1" vertex="1">
          <mxGeometry x="205" y="1870" width="120" height="60" as="geometry" />
        </mxCell>
        <mxCell id="hRDZXHe7MTuxdJLK6Rt7-233" style="edgeStyle=orthogonalEdgeStyle;curved=1;rounded=0;orthogonalLoop=1;jettySize=auto;html=1;entryX=0.5;entryY=1;entryDx=0;entryDy=0;fillColor=#FFFFCC;" parent="1" source="hRDZXHe7MTuxdJLK6Rt7-222" target="hRDZXHe7MTuxdJLK6Rt7-221" edge="1">
          <mxGeometry relative="1" as="geometry" />
        </mxCell>
        <mxCell id="hRDZXHe7MTuxdJLK6Rt7-222" value="Пароль:" style="rounded=1;whiteSpace=wrap;html=1;fillColor=#FFFFCC;" parent="1" vertex="1">
          <mxGeometry x="65" y="1930" width="120" height="60" as="geometry" />
        </mxCell>
        <mxCell id="hRDZXHe7MTuxdJLK6Rt7-234" style="edgeStyle=orthogonalEdgeStyle;curved=1;rounded=0;orthogonalLoop=1;jettySize=auto;html=1;" parent="1" source="hRDZXHe7MTuxdJLK6Rt7-228" target="hRDZXHe7MTuxdJLK6Rt7-229" edge="1">
          <mxGeometry relative="1" as="geometry" />
        </mxCell>
        <mxCell id="hRDZXHe7MTuxdJLK6Rt7-228" value="Кнопка &quot;Войти&quot;" style="rounded=1;whiteSpace=wrap;html=1;fillColor=#FFFFCC;" parent="1" vertex="1">
          <mxGeometry x="-55" y="2030" width="120" height="60" as="geometry" />
        </mxCell>
        <mxCell id="hRDZXHe7MTuxdJLK6Rt7-235" style="edgeStyle=orthogonalEdgeStyle;curved=1;rounded=0;orthogonalLoop=1;jettySize=auto;html=1;entryX=0;entryY=0.5;entryDx=0;entryDy=0;fillColor=#FFFFCC;" parent="1" source="hRDZXHe7MTuxdJLK6Rt7-229" target="hRDZXHe7MTuxdJLK6Rt7-230" edge="1">
          <mxGeometry relative="1" as="geometry" />
        </mxCell>
        <mxCell id="hRDZXHe7MTuxdJLK6Rt7-229" value="Главная страница, Все пользователь" style="rounded=1;whiteSpace=wrap;html=1;fillColor=#FFFFCC;" parent="1" vertex="1">
          <mxGeometry x="-150" y="2130" width="120" height="60" as="geometry" />
        </mxCell>
        <mxCell id="hRDZXHe7MTuxdJLK6Rt7-236" style="edgeStyle=orthogonalEdgeStyle;curved=1;rounded=0;orthogonalLoop=1;jettySize=auto;html=1;entryX=0;entryY=0.5;entryDx=0;entryDy=0;" parent="1" source="hRDZXHe7MTuxdJLK6Rt7-230" target="hRDZXHe7MTuxdJLK6Rt7-211" edge="1">
          <mxGeometry relative="1" as="geometry" />
        </mxCell>
        <mxCell id="hRDZXHe7MTuxdJLK6Rt7-230" value="Хедер" style="rounded=1;whiteSpace=wrap;html=1;fillColor=#FFFFCC;" parent="1" vertex="1">
          <mxGeometry x="17.5" y="2130" width="120" height="60" as="geometry" />
        </mxCell>
        <mxCell id="hRDZXHe7MTuxdJLK6Rt7-238" value="Тайтл, Управление комментариями" style="rounded=1;whiteSpace=wrap;html=1;fillColor=#FFF3F0;" parent="1" vertex="1">
          <mxGeometry x="385" y="2000" width="120" height="60" as="geometry" />
        </mxCell>
        <mxCell id="hRDZXHe7MTuxdJLK6Rt7-241" value="По умолчанию лента комментариев пустая" style="rounded=1;whiteSpace=wrap;html=1;fillColor=#F7F0FF;" parent="1" vertex="1">
          <mxGeometry x="795" y="2020" width="120" height="60" as="geometry" />
        </mxCell>
        <mxCell id="hRDZXHe7MTuxdJLK6Rt7-249" style="edgeStyle=orthogonalEdgeStyle;curved=1;rounded=0;orthogonalLoop=1;jettySize=auto;html=1;entryX=0;entryY=0.5;entryDx=0;entryDy=0;fillColor=#F7F0FF;" parent="1" source="hRDZXHe7MTuxdJLK6Rt7-244" target="hRDZXHe7MTuxdJLK6Rt7-247" edge="1">
          <mxGeometry relative="1" as="geometry" />
        </mxCell>
        <mxCell id="hRDZXHe7MTuxdJLK6Rt7-250" style="edgeStyle=orthogonalEdgeStyle;curved=1;rounded=0;orthogonalLoop=1;jettySize=auto;html=1;entryX=0;entryY=0.5;entryDx=0;entryDy=0;fillColor=#F7F0FF;" parent="1" source="hRDZXHe7MTuxdJLK6Rt7-244" target="hRDZXHe7MTuxdJLK6Rt7-248" edge="1">
          <mxGeometry relative="1" as="geometry" />
        </mxCell>
        <mxCell id="hRDZXHe7MTuxdJLK6Rt7-244" value="Лента комментариев" style="whiteSpace=wrap;html=1;rounded=1;fillColor=#F7F0FF;" parent="1" vertex="1">
          <mxGeometry x="1080" y="1920" width="120" height="60" as="geometry" />
        </mxCell>
        <mxCell id="hRDZXHe7MTuxdJLK6Rt7-268" style="edgeStyle=orthogonalEdgeStyle;curved=1;rounded=0;orthogonalLoop=1;jettySize=auto;html=1;entryX=0.5;entryY=1;entryDx=0;entryDy=0;fillColor=#F7F0FF;" parent="1" source="hRDZXHe7MTuxdJLK6Rt7-247" target="hRDZXHe7MTuxdJLK6Rt7-257" edge="1">
          <mxGeometry relative="1" as="geometry" />
        </mxCell>
        <mxCell id="hRDZXHe7MTuxdJLK6Rt7-269" style="edgeStyle=orthogonalEdgeStyle;curved=1;rounded=0;orthogonalLoop=1;jettySize=auto;html=1;entryX=0.5;entryY=1;entryDx=0;entryDy=0;fillColor=#F7F0FF;" parent="1" source="hRDZXHe7MTuxdJLK6Rt7-247" target="hRDZXHe7MTuxdJLK6Rt7-260" edge="1">
          <mxGeometry relative="1" as="geometry" />
        </mxCell>
        <mxCell id="hRDZXHe7MTuxdJLK6Rt7-274" style="edgeStyle=orthogonalEdgeStyle;curved=1;rounded=0;orthogonalLoop=1;jettySize=auto;html=1;entryX=0.5;entryY=1;entryDx=0;entryDy=0;fillColor=#F7F0FF;" parent="1" source="hRDZXHe7MTuxdJLK6Rt7-247" target="hRDZXHe7MTuxdJLK6Rt7-259" edge="1">
          <mxGeometry relative="1" as="geometry" />
        </mxCell>
        <mxCell id="hRDZXHe7MTuxdJLK6Rt7-279" style="edgeStyle=orthogonalEdgeStyle;curved=1;rounded=0;orthogonalLoop=1;jettySize=auto;html=1;entryX=0.5;entryY=1;entryDx=0;entryDy=0;fillColor=#F7F0FF;" parent="1" source="hRDZXHe7MTuxdJLK6Rt7-247" target="hRDZXHe7MTuxdJLK6Rt7-258" edge="1">
          <mxGeometry relative="1" as="geometry" />
        </mxCell>
        <mxCell id="hRDZXHe7MTuxdJLK6Rt7-283" style="edgeStyle=orthogonalEdgeStyle;curved=1;rounded=0;orthogonalLoop=1;jettySize=auto;html=1;entryX=0;entryY=0.5;entryDx=0;entryDy=0;fillColor=#F7F0FF;" parent="1" source="hRDZXHe7MTuxdJLK6Rt7-247" target="hRDZXHe7MTuxdJLK6Rt7-266" edge="1">
          <mxGeometry relative="1" as="geometry" />
        </mxCell>
        <mxCell id="hRDZXHe7MTuxdJLK6Rt7-284" style="edgeStyle=orthogonalEdgeStyle;curved=1;rounded=0;orthogonalLoop=1;jettySize=auto;html=1;entryX=0;entryY=0.5;entryDx=0;entryDy=0;fillColor=#F7F0FF;" parent="1" source="hRDZXHe7MTuxdJLK6Rt7-247" target="hRDZXHe7MTuxdJLK6Rt7-261" edge="1">
          <mxGeometry relative="1" as="geometry" />
        </mxCell>
        <mxCell id="hRDZXHe7MTuxdJLK6Rt7-247" value="Комментарий" style="rounded=1;whiteSpace=wrap;html=1;fillColor=#F7F0FF;" parent="1" vertex="1">
          <mxGeometry x="1250" y="1840" width="120" height="60" as="geometry" />
        </mxCell>
        <mxCell id="hRDZXHe7MTuxdJLK6Rt7-252" value="" style="edgeStyle=orthogonalEdgeStyle;curved=1;rounded=0;orthogonalLoop=1;jettySize=auto;html=1;fillColor=#F7F0FF;" parent="1" source="hRDZXHe7MTuxdJLK6Rt7-248" target="hRDZXHe7MTuxdJLK6Rt7-251" edge="1">
          <mxGeometry relative="1" as="geometry" />
        </mxCell>
        <mxCell id="hRDZXHe7MTuxdJLK6Rt7-254" style="edgeStyle=orthogonalEdgeStyle;curved=1;rounded=0;orthogonalLoop=1;jettySize=auto;html=1;entryX=0;entryY=0.25;entryDx=0;entryDy=0;fillColor=#F7F0FF;" parent="1" source="hRDZXHe7MTuxdJLK6Rt7-248" target="hRDZXHe7MTuxdJLK6Rt7-253" edge="1">
          <mxGeometry relative="1" as="geometry" />
        </mxCell>
        <mxCell id="hRDZXHe7MTuxdJLK6Rt7-248" value="Пагинация" style="rounded=1;whiteSpace=wrap;html=1;fillColor=#F7F0FF;" parent="1" vertex="1">
          <mxGeometry x="1241" y="2000" width="120" height="60" as="geometry" />
        </mxCell>
        <mxCell id="hRDZXHe7MTuxdJLK6Rt7-256" value="" style="edgeStyle=orthogonalEdgeStyle;curved=1;rounded=0;orthogonalLoop=1;jettySize=auto;html=1;fillColor=#F7F0FF;" parent="1" source="hRDZXHe7MTuxdJLK6Rt7-251" target="hRDZXHe7MTuxdJLK6Rt7-255" edge="1">
          <mxGeometry relative="1" as="geometry" />
        </mxCell>
        <mxCell id="hRDZXHe7MTuxdJLK6Rt7-251" value="Нумерация кликабельна" style="whiteSpace=wrap;html=1;rounded=1;fillColor=#F7F0FF;" parent="1" vertex="1">
          <mxGeometry x="1380" y="1920" width="100" height="60" as="geometry" />
        </mxCell>
        <mxCell id="hRDZXHe7MTuxdJLK6Rt7-253" value="При наведении меняет увет на синий" style="rounded=1;whiteSpace=wrap;html=1;fillColor=#F7F0FF;" parent="1" vertex="1">
          <mxGeometry x="1450" y="2050" width="120" height="60" as="geometry" />
        </mxCell>
        <mxCell id="hRDZXHe7MTuxdJLK6Rt7-255" value="При клике переход на&amp;nbsp;следующею&amp;nbsp;страницу с комментариями" style="whiteSpace=wrap;html=1;rounded=1;fillColor=#F7F0FF;" parent="1" vertex="1">
          <mxGeometry x="1525" y="1970" width="140" height="60" as="geometry" />
        </mxCell>
        <mxCell id="hRDZXHe7MTuxdJLK6Rt7-273" style="edgeStyle=orthogonalEdgeStyle;curved=1;rounded=0;orthogonalLoop=1;jettySize=auto;html=1;fillColor=#F7F0FF;" parent="1" source="hRDZXHe7MTuxdJLK6Rt7-257" target="hRDZXHe7MTuxdJLK6Rt7-270" edge="1">
          <mxGeometry relative="1" as="geometry" />
        </mxCell>
        <mxCell id="hRDZXHe7MTuxdJLK6Rt7-257" value="Имя автора" style="rounded=1;whiteSpace=wrap;html=1;fillColor=#F7F0FF;" parent="1" vertex="1">
          <mxGeometry x="1490" y="1730" width="90" height="60" as="geometry" />
        </mxCell>
        <mxCell id="hRDZXHe7MTuxdJLK6Rt7-282" style="edgeStyle=orthogonalEdgeStyle;curved=1;rounded=0;orthogonalLoop=1;jettySize=auto;html=1;entryX=0;entryY=0.5;entryDx=0;entryDy=0;fillColor=#F7F0FF;" parent="1" source="hRDZXHe7MTuxdJLK6Rt7-258" target="hRDZXHe7MTuxdJLK6Rt7-280" edge="1">
          <mxGeometry relative="1" as="geometry" />
        </mxCell>
        <mxCell id="hRDZXHe7MTuxdJLK6Rt7-258" value="Дата и время комментария" style="rounded=1;whiteSpace=wrap;html=1;fillColor=#F7F0FF;" parent="1" vertex="1">
          <mxGeometry x="1710" y="1750" width="120" height="60" as="geometry" />
        </mxCell>
        <mxCell id="hRDZXHe7MTuxdJLK6Rt7-275" style="edgeStyle=orthogonalEdgeStyle;curved=1;rounded=0;orthogonalLoop=1;jettySize=auto;html=1;fillColor=#F7F0FF;" parent="1" source="hRDZXHe7MTuxdJLK6Rt7-259" target="hRDZXHe7MTuxdJLK6Rt7-187" edge="1">
          <mxGeometry relative="1" as="geometry" />
        </mxCell>
        <mxCell id="hRDZXHe7MTuxdJLK6Rt7-276" style="edgeStyle=orthogonalEdgeStyle;curved=1;rounded=0;orthogonalLoop=1;jettySize=auto;html=1;entryX=0.5;entryY=1;entryDx=0;entryDy=0;fillColor=#F7F0FF;" parent="1" source="hRDZXHe7MTuxdJLK6Rt7-259" target="hRDZXHe7MTuxdJLK6Rt7-189" edge="1">
          <mxGeometry relative="1" as="geometry" />
        </mxCell>
        <mxCell id="hRDZXHe7MTuxdJLK6Rt7-277" style="edgeStyle=orthogonalEdgeStyle;curved=1;rounded=0;orthogonalLoop=1;jettySize=auto;html=1;entryX=0.5;entryY=1;entryDx=0;entryDy=0;fillColor=#F7F0FF;" parent="1" source="hRDZXHe7MTuxdJLK6Rt7-259" target="hRDZXHe7MTuxdJLK6Rt7-191" edge="1">
          <mxGeometry relative="1" as="geometry" />
        </mxCell>
        <mxCell id="hRDZXHe7MTuxdJLK6Rt7-259" value="Тело комментария" style="rounded=1;whiteSpace=wrap;html=1;fillColor=#F7F0FF;" parent="1" vertex="1">
          <mxGeometry x="1590" y="1700" width="120" height="60" as="geometry" />
        </mxCell>
        <mxCell id="hRDZXHe7MTuxdJLK6Rt7-272" style="edgeStyle=orthogonalEdgeStyle;curved=1;rounded=0;orthogonalLoop=1;jettySize=auto;html=1;entryX=0.447;entryY=0.984;entryDx=0;entryDy=0;entryPerimeter=0;fillColor=#F7F0FF;" parent="1" source="hRDZXHe7MTuxdJLK6Rt7-260" target="hRDZXHe7MTuxdJLK6Rt7-271" edge="1">
          <mxGeometry relative="1" as="geometry" />
        </mxCell>
        <mxCell id="hRDZXHe7MTuxdJLK6Rt7-260" value="Аватар автора" style="rounded=1;whiteSpace=wrap;html=1;fillColor=#F7F0FF;" parent="1" vertex="1">
          <mxGeometry x="1380" y="1770" width="100" height="60" as="geometry" />
        </mxCell>
        <mxCell id="hRDZXHe7MTuxdJLK6Rt7-263" value="" style="edgeStyle=orthogonalEdgeStyle;curved=1;rounded=0;orthogonalLoop=1;jettySize=auto;html=1;fillColor=#F7F0FF;" parent="1" source="hRDZXHe7MTuxdJLK6Rt7-261" target="hRDZXHe7MTuxdJLK6Rt7-262" edge="1">
          <mxGeometry relative="1" as="geometry" />
        </mxCell>
        <mxCell id="hRDZXHe7MTuxdJLK6Rt7-261" value="Гиперссылка,откуда пришел комментарий&lt;span style=&quot;color: rgb(32, 33, 36); font-family: &amp;quot;Google Sans&amp;quot;, arial, sans-serif; font-size: 20px; text-align: left; background-color: rgb(255, 255, 255);&quot;&gt;&amp;nbsp;&lt;/span&gt;&amp;nbsp;" style="rounded=1;whiteSpace=wrap;html=1;fillColor=#F7F0FF;" parent="1" vertex="1">
          <mxGeometry x="1730" y="1920" width="120" height="60" as="geometry" />
        </mxCell>
        <mxCell id="hRDZXHe7MTuxdJLK6Rt7-265" value="" style="edgeStyle=orthogonalEdgeStyle;curved=1;rounded=0;orthogonalLoop=1;jettySize=auto;html=1;fillColor=#F7F0FF;" parent="1" source="hRDZXHe7MTuxdJLK6Rt7-262" target="hRDZXHe7MTuxdJLK6Rt7-264" edge="1">
          <mxGeometry relative="1" as="geometry" />
        </mxCell>
        <mxCell id="hRDZXHe7MTuxdJLK6Rt7-262" value="Кликабельна" style="whiteSpace=wrap;html=1;rounded=1;fillColor=#F7F0FF;" parent="1" vertex="1">
          <mxGeometry x="1890" y="1920" width="120" height="60" as="geometry" />
        </mxCell>
        <mxCell id="hRDZXHe7MTuxdJLK6Rt7-264" value="По клику переход на сайт &quot;Психологос&quot;" style="whiteSpace=wrap;html=1;rounded=1;fillColor=#F7F0FF;" parent="1" vertex="1">
          <mxGeometry x="2040" y="1850" width="120" height="60" as="geometry" />
        </mxCell>
        <mxCell id="hRDZXHe7MTuxdJLK6Rt7-285" style="edgeStyle=orthogonalEdgeStyle;curved=1;rounded=0;orthogonalLoop=1;jettySize=auto;html=1;entryX=0.5;entryY=1;entryDx=0;entryDy=0;fillColor=#F7F0FF;" parent="1" source="hRDZXHe7MTuxdJLK6Rt7-266" target="hRDZXHe7MTuxdJLK6Rt7-267" edge="1">
          <mxGeometry relative="1" as="geometry" />
        </mxCell>
        <mxCell id="hRDZXHe7MTuxdJLK6Rt7-266" value="Тип контента" style="rounded=1;whiteSpace=wrap;html=1;fillColor=#F7F0FF;" parent="1" vertex="1">
          <mxGeometry x="1730" y="1850" width="120" height="60" as="geometry" />
        </mxCell>
        <mxCell id="hRDZXHe7MTuxdJLK6Rt7-267" value="Не кликабельно" style="rounded=1;whiteSpace=wrap;html=1;fillColor=#F7F0FF;" parent="1" vertex="1">
          <mxGeometry x="1870" y="1800" width="120" height="60" as="geometry" />
        </mxCell>
        <mxCell id="hRDZXHe7MTuxdJLK6Rt7-270" value="Не кликабельно" style="rounded=1;whiteSpace=wrap;html=1;fillColor=#F7F0FF;" parent="1" vertex="1">
          <mxGeometry x="1450" y="1630" width="120" height="60" as="geometry" />
        </mxCell>
        <mxCell id="hRDZXHe7MTuxdJLK6Rt7-271" value="Не кликабельно" style="rounded=1;whiteSpace=wrap;html=1;fillColor=#F7F0FF;" parent="1" vertex="1">
          <mxGeometry x="1330" y="1670" width="120" height="60" as="geometry" />
        </mxCell>
        <mxCell id="hRDZXHe7MTuxdJLK6Rt7-280" value="Не кликабельно" style="rounded=1;whiteSpace=wrap;html=1;fillColor=#F7F0FF;" parent="1" vertex="1">
          <mxGeometry x="1900" y="1724" width="100" height="60" as="geometry" />
        </mxCell>
        <mxCell id="hRDZXHe7MTuxdJLK6Rt7-286" value="Кнопка выделена желтым цветом" style="rounded=1;whiteSpace=wrap;html=1;fillColor=#F7F0FF;" parent="1" vertex="1">
          <mxGeometry x="1580" y="1550" width="120" height="60" as="geometry" />
        </mxCell>
        <mxCell id="hRDZXHe7MTuxdJLK6Rt7-294" style="edgeStyle=orthogonalEdgeStyle;curved=1;rounded=0;orthogonalLoop=1;jettySize=auto;html=1;entryX=1;entryY=0.5;entryDx=0;entryDy=0;fillColor=#F7F0FF;" parent="1" source="hRDZXHe7MTuxdJLK6Rt7-287" target="hRDZXHe7MTuxdJLK6Rt7-288" edge="1">
          <mxGeometry relative="1" as="geometry" />
        </mxCell>
        <mxCell id="hRDZXHe7MTuxdJLK6Rt7-305" style="edgeStyle=orthogonalEdgeStyle;curved=1;rounded=0;orthogonalLoop=1;jettySize=auto;html=1;entryX=0.5;entryY=1;entryDx=0;entryDy=0;fillColor=#F7F0FF;" parent="1" source="hRDZXHe7MTuxdJLK6Rt7-287" target="hRDZXHe7MTuxdJLK6Rt7-297" edge="1">
          <mxGeometry relative="1" as="geometry" />
        </mxCell>
        <mxCell id="hRDZXHe7MTuxdJLK6Rt7-336" style="edgeStyle=orthogonalEdgeStyle;curved=1;rounded=0;orthogonalLoop=1;jettySize=auto;html=1;entryX=0.395;entryY=0.995;entryDx=0;entryDy=0;entryPerimeter=0;fillColor=#F7F0FF;" parent="1" source="hRDZXHe7MTuxdJLK6Rt7-287" target="hRDZXHe7MTuxdJLK6Rt7-289" edge="1">
          <mxGeometry relative="1" as="geometry" />
        </mxCell>
        <mxCell id="hRDZXHe7MTuxdJLK6Rt7-287" value="Кликабельна" style="rounded=1;whiteSpace=wrap;html=1;fillColor=#F7F0FF;" parent="1" vertex="1">
          <mxGeometry x="1660" y="1470" width="120" height="60" as="geometry" />
        </mxCell>
        <mxCell id="hRDZXHe7MTuxdJLK6Rt7-288" value="При клике публикует комментарий под статьей" style="rounded=1;whiteSpace=wrap;html=1;fillColor=#F7F0FF;" parent="1" vertex="1">
          <mxGeometry x="1540" y="1350" width="120" height="60" as="geometry" />
        </mxCell>
        <mxCell id="hRDZXHe7MTuxdJLK6Rt7-289" value="Комментарий переходит в раздел прочитанные" style="rounded=1;whiteSpace=wrap;html=1;fillColor=#F7F0FF;" parent="1" vertex="1">
          <mxGeometry x="1740" y="1360" width="120" height="60" as="geometry" />
        </mxCell>
        <mxCell id="hRDZXHe7MTuxdJLK6Rt7-334" style="edgeStyle=orthogonalEdgeStyle;curved=1;rounded=0;orthogonalLoop=1;jettySize=auto;html=1;fillColor=#F7F0FF;" parent="1" source="hRDZXHe7MTuxdJLK6Rt7-295" target="hRDZXHe7MTuxdJLK6Rt7-331" edge="1">
          <mxGeometry relative="1" as="geometry" />
        </mxCell>
        <mxCell id="hRDZXHe7MTuxdJLK6Rt7-497" style="edgeStyle=orthogonalEdgeStyle;curved=1;rounded=0;orthogonalLoop=1;jettySize=auto;html=1;entryX=0.5;entryY=1;entryDx=0;entryDy=0;fillColor=#F7F0FF;" parent="1" source="hRDZXHe7MTuxdJLK6Rt7-295" target="hRDZXHe7MTuxdJLK6Rt7-296" edge="1">
          <mxGeometry relative="1" as="geometry" />
        </mxCell>
        <mxCell id="hRDZXHe7MTuxdJLK6Rt7-295" value="Иконка &quot;карандаш&quot;" style="rounded=1;whiteSpace=wrap;html=1;fillColor=#F7F0FF;" parent="1" vertex="1">
          <mxGeometry x="1960" y="1500" width="120" height="50" as="geometry" />
        </mxCell>
        <mxCell id="hRDZXHe7MTuxdJLK6Rt7-308" style="edgeStyle=orthogonalEdgeStyle;curved=1;rounded=0;orthogonalLoop=1;jettySize=auto;html=1;entryX=0.5;entryY=1;entryDx=0;entryDy=0;fillColor=#F7F0FF;" parent="1" source="hRDZXHe7MTuxdJLK6Rt7-296" target="hRDZXHe7MTuxdJLK6Rt7-303" edge="1">
          <mxGeometry relative="1" as="geometry" />
        </mxCell>
        <mxCell id="hRDZXHe7MTuxdJLK6Rt7-309" style="edgeStyle=orthogonalEdgeStyle;curved=1;rounded=0;orthogonalLoop=1;jettySize=auto;html=1;entryX=0.5;entryY=1;entryDx=0;entryDy=0;fillColor=#F7F0FF;" parent="1" source="hRDZXHe7MTuxdJLK6Rt7-296" target="hRDZXHe7MTuxdJLK6Rt7-304" edge="1">
          <mxGeometry relative="1" as="geometry" />
        </mxCell>
        <mxCell id="hRDZXHe7MTuxdJLK6Rt7-296" value="Кликабельна" style="rounded=1;whiteSpace=wrap;html=1;fillColor=#F7F0FF;" parent="1" vertex="1">
          <mxGeometry x="1910" y="1400" width="120" height="60" as="geometry" />
        </mxCell>
        <mxCell id="hRDZXHe7MTuxdJLK6Rt7-297" value="При наведении меняет цвет на синий" style="rounded=1;whiteSpace=wrap;html=1;fillColor=#F7F0FF;" parent="1" vertex="1">
          <mxGeometry x="1660" y="1280" width="120" height="60" as="geometry" />
        </mxCell>
        <mxCell id="hRDZXHe7MTuxdJLK6Rt7-347" style="edgeStyle=orthogonalEdgeStyle;curved=1;rounded=0;orthogonalLoop=1;jettySize=auto;html=1;entryX=0.445;entryY=0.981;entryDx=0;entryDy=0;entryPerimeter=0;fillColor=#F7F0FF;" parent="1" source="hRDZXHe7MTuxdJLK6Rt7-300" target="hRDZXHe7MTuxdJLK6Rt7-344" edge="1">
          <mxGeometry relative="1" as="geometry" />
        </mxCell>
        <mxCell id="hRDZXHe7MTuxdJLK6Rt7-353" style="edgeStyle=orthogonalEdgeStyle;curved=1;rounded=0;orthogonalLoop=1;jettySize=auto;html=1;entryX=0.5;entryY=1;entryDx=0;entryDy=0;fillColor=#F7F0FF;" parent="1" source="hRDZXHe7MTuxdJLK6Rt7-300" target="hRDZXHe7MTuxdJLK6Rt7-345" edge="1">
          <mxGeometry relative="1" as="geometry" />
        </mxCell>
        <mxCell id="hRDZXHe7MTuxdJLK6Rt7-356" style="edgeStyle=orthogonalEdgeStyle;curved=1;rounded=0;orthogonalLoop=1;jettySize=auto;html=1;fillColor=#F7F0FF;" parent="1" source="hRDZXHe7MTuxdJLK6Rt7-300" target="hRDZXHe7MTuxdJLK6Rt7-346" edge="1">
          <mxGeometry relative="1" as="geometry" />
        </mxCell>
        <mxCell id="hRDZXHe7MTuxdJLK6Rt7-358" style="edgeStyle=orthogonalEdgeStyle;curved=1;rounded=0;orthogonalLoop=1;jettySize=auto;html=1;fillColor=#F7F0FF;" parent="1" source="hRDZXHe7MTuxdJLK6Rt7-300" target="hRDZXHe7MTuxdJLK6Rt7-357" edge="1">
          <mxGeometry relative="1" as="geometry" />
        </mxCell>
        <mxCell id="hRDZXHe7MTuxdJLK6Rt7-300" value="Клик по кнопке выводит всплывающее окно" style="rounded=1;whiteSpace=wrap;html=1;fillColor=#F7F0FF;" parent="1" vertex="1">
          <mxGeometry x="2400" y="1700" width="120" height="60" as="geometry" />
        </mxCell>
        <mxCell id="hRDZXHe7MTuxdJLK6Rt7-312" value="" style="edgeStyle=orthogonalEdgeStyle;curved=1;rounded=0;orthogonalLoop=1;jettySize=auto;html=1;fillColor=#F7F0FF;" parent="1" source="hRDZXHe7MTuxdJLK6Rt7-301" target="hRDZXHe7MTuxdJLK6Rt7-311" edge="1">
          <mxGeometry relative="1" as="geometry" />
        </mxCell>
        <mxCell id="hRDZXHe7MTuxdJLK6Rt7-301" value="&lt;span style=&quot;color: rgb(0, 0, 0); font-family: Helvetica; font-size: 12px; font-style: normal; font-variant-ligatures: normal; font-variant-caps: normal; font-weight: 400; letter-spacing: normal; orphans: 2; text-align: center; text-indent: 0px; text-transform: none; widows: 2; word-spacing: 0px; -webkit-text-stroke-width: 0px; background-color: rgb(251, 251, 251); text-decoration-thickness: initial; text-decoration-style: initial; text-decoration-color: initial; float: none; display: inline !important;&quot;&gt;По умолчанию не активна&lt;/span&gt;" style="rounded=1;whiteSpace=wrap;html=1;fillColor=#F7F0FF;" parent="1" vertex="1">
          <mxGeometry x="1990" y="1130" width="120" height="60" as="geometry" />
        </mxCell>
        <mxCell id="hRDZXHe7MTuxdJLK6Rt7-317" style="edgeStyle=orthogonalEdgeStyle;curved=1;rounded=0;orthogonalLoop=1;jettySize=auto;html=1;fillColor=#F7F0FF;" parent="1" source="hRDZXHe7MTuxdJLK6Rt7-302" target="hRDZXHe7MTuxdJLK6Rt7-301" edge="1">
          <mxGeometry relative="1" as="geometry" />
        </mxCell>
        <mxCell id="hRDZXHe7MTuxdJLK6Rt7-302" value="Кнопка &quot;Сохранить&quot;&amp;nbsp;" style="rounded=1;whiteSpace=wrap;html=1;fillColor=#F7F0FF;" parent="1" vertex="1">
          <mxGeometry x="2140" y="1210" width="120" height="60" as="geometry" />
        </mxCell>
        <mxCell id="hRDZXHe7MTuxdJLK6Rt7-303" value="При наведении меняет цвет на синий" style="rounded=1;whiteSpace=wrap;html=1;fillColor=#F7F0FF;" parent="1" vertex="1">
          <mxGeometry x="1850" y="1280" width="120" height="60" as="geometry" />
        </mxCell>
        <mxCell id="hRDZXHe7MTuxdJLK6Rt7-310" style="edgeStyle=orthogonalEdgeStyle;curved=1;rounded=0;orthogonalLoop=1;jettySize=auto;html=1;fillColor=#F7F0FF;" parent="1" source="hRDZXHe7MTuxdJLK6Rt7-304" target="hRDZXHe7MTuxdJLK6Rt7-302" edge="1">
          <mxGeometry relative="1" as="geometry" />
        </mxCell>
        <mxCell id="hRDZXHe7MTuxdJLK6Rt7-326" style="edgeStyle=orthogonalEdgeStyle;curved=1;rounded=0;orthogonalLoop=1;jettySize=auto;html=1;entryX=0;entryY=0.5;entryDx=0;entryDy=0;fillColor=#F7F0FF;" parent="1" source="hRDZXHe7MTuxdJLK6Rt7-304" target="hRDZXHe7MTuxdJLK6Rt7-320" edge="1">
          <mxGeometry relative="1" as="geometry" />
        </mxCell>
        <mxCell id="hRDZXHe7MTuxdJLK6Rt7-304" value="При клике раскрывает тело комментария" style="rounded=1;whiteSpace=wrap;html=1;fillColor=#F7F0FF;" parent="1" vertex="1">
          <mxGeometry x="2007" y="1290" width="120" height="60" as="geometry" />
        </mxCell>
        <mxCell id="hRDZXHe7MTuxdJLK6Rt7-314" value="" style="edgeStyle=orthogonalEdgeStyle;curved=1;rounded=0;orthogonalLoop=1;jettySize=auto;html=1;fillColor=#F7F0FF;" parent="1" source="hRDZXHe7MTuxdJLK6Rt7-311" target="hRDZXHe7MTuxdJLK6Rt7-313" edge="1">
          <mxGeometry relative="1" as="geometry" />
        </mxCell>
        <mxCell id="hRDZXHe7MTuxdJLK6Rt7-316" style="edgeStyle=orthogonalEdgeStyle;curved=1;rounded=0;orthogonalLoop=1;jettySize=auto;html=1;fillColor=#F7F0FF;" parent="1" source="hRDZXHe7MTuxdJLK6Rt7-311" target="hRDZXHe7MTuxdJLK6Rt7-315" edge="1">
          <mxGeometry relative="1" as="geometry" />
        </mxCell>
        <mxCell id="hRDZXHe7MTuxdJLK6Rt7-319" value="" style="edgeStyle=orthogonalEdgeStyle;curved=1;rounded=0;orthogonalLoop=1;jettySize=auto;html=1;fillColor=#F7F0FF;" parent="1" source="hRDZXHe7MTuxdJLK6Rt7-311" target="hRDZXHe7MTuxdJLK6Rt7-318" edge="1">
          <mxGeometry relative="1" as="geometry" />
        </mxCell>
        <mxCell id="hRDZXHe7MTuxdJLK6Rt7-311" value="Кликабельна после ввода текста" style="whiteSpace=wrap;html=1;rounded=1;fillColor=#F7F0FF;" parent="1" vertex="1">
          <mxGeometry x="2190" y="1130" width="120" height="60" as="geometry" />
        </mxCell>
        <mxCell id="hRDZXHe7MTuxdJLK6Rt7-313" value="&lt;meta charset=&quot;utf-8&quot;&gt;&lt;span style=&quot;color: rgb(0, 0, 0); font-family: Helvetica; font-size: 12px; font-style: normal; font-variant-ligatures: normal; font-variant-caps: normal; font-weight: 400; letter-spacing: normal; orphans: 2; text-align: center; text-indent: 0px; text-transform: none; widows: 2; word-spacing: 0px; -webkit-text-stroke-width: 0px; background-color: rgb(251, 251, 251); text-decoration-thickness: initial; text-decoration-style: initial; text-decoration-color: initial; float: none; display: inline !important;&quot;&gt;Кнопка выделена желтым цветом&lt;/span&gt;" style="whiteSpace=wrap;html=1;rounded=1;fillColor=#F7F0FF;" parent="1" vertex="1">
          <mxGeometry x="2127" y="1020" width="120" height="60" as="geometry" />
        </mxCell>
        <mxCell id="hRDZXHe7MTuxdJLK6Rt7-315" value="&lt;meta charset=&quot;utf-8&quot;&gt;&lt;span style=&quot;color: rgb(0, 0, 0); font-family: Helvetica; font-size: 12px; font-style: normal; font-variant-ligatures: normal; font-variant-caps: normal; font-weight: 400; letter-spacing: normal; orphans: 2; text-align: center; text-indent: 0px; text-transform: none; widows: 2; word-spacing: 0px; -webkit-text-stroke-width: 0px; background-color: rgb(251, 251, 251); text-decoration-thickness: initial; text-decoration-style: initial; text-decoration-color: initial; float: none; display: inline !important;&quot;&gt;При наведении меняет цвет на синий&lt;/span&gt;" style="rounded=1;whiteSpace=wrap;html=1;fillColor=#F7F0FF;" parent="1" vertex="1">
          <mxGeometry x="2290" y="1020" width="120" height="60" as="geometry" />
        </mxCell>
        <mxCell id="hRDZXHe7MTuxdJLK6Rt7-318" value="При клике всплывает сообщение &quot;комментарий успешно обновлен&quot;" style="whiteSpace=wrap;html=1;rounded=1;fillColor=#F7F0FF;" parent="1" vertex="1">
          <mxGeometry x="2390" y="1130" width="130" height="60" as="geometry" />
        </mxCell>
        <mxCell id="hRDZXHe7MTuxdJLK6Rt7-327" style="edgeStyle=orthogonalEdgeStyle;curved=1;rounded=0;orthogonalLoop=1;jettySize=auto;html=1;entryX=0.5;entryY=1;entryDx=0;entryDy=0;fillColor=#F7F0FF;" parent="1" source="hRDZXHe7MTuxdJLK6Rt7-320" target="hRDZXHe7MTuxdJLK6Rt7-324" edge="1">
          <mxGeometry relative="1" as="geometry" />
        </mxCell>
        <mxCell id="hRDZXHe7MTuxdJLK6Rt7-328" style="edgeStyle=orthogonalEdgeStyle;curved=1;rounded=0;orthogonalLoop=1;jettySize=auto;html=1;entryX=0.5;entryY=1;entryDx=0;entryDy=0;fillColor=#F7F0FF;" parent="1" source="hRDZXHe7MTuxdJLK6Rt7-320" target="hRDZXHe7MTuxdJLK6Rt7-323" edge="1">
          <mxGeometry relative="1" as="geometry" />
        </mxCell>
        <mxCell id="hRDZXHe7MTuxdJLK6Rt7-329" style="edgeStyle=orthogonalEdgeStyle;curved=1;rounded=0;orthogonalLoop=1;jettySize=auto;html=1;entryX=0;entryY=0.5;entryDx=0;entryDy=0;fillColor=#F7F0FF;" parent="1" source="hRDZXHe7MTuxdJLK6Rt7-320" target="hRDZXHe7MTuxdJLK6Rt7-325" edge="1">
          <mxGeometry relative="1" as="geometry" />
        </mxCell>
        <mxCell id="hRDZXHe7MTuxdJLK6Rt7-330" style="edgeStyle=orthogonalEdgeStyle;curved=1;rounded=0;orthogonalLoop=1;jettySize=auto;html=1;entryX=0.5;entryY=0;entryDx=0;entryDy=0;fillColor=#F7F0FF;" parent="1" source="hRDZXHe7MTuxdJLK6Rt7-320" target="hRDZXHe7MTuxdJLK6Rt7-322" edge="1">
          <mxGeometry relative="1" as="geometry" />
        </mxCell>
        <mxCell id="hRDZXHe7MTuxdJLK6Rt7-320" value="Кнопка &quot;Отмена&quot;" style="rounded=1;whiteSpace=wrap;html=1;fillColor=#F7F0FF;" parent="1" vertex="1">
          <mxGeometry x="2210" y="1310" width="120" height="60" as="geometry" />
        </mxCell>
        <mxCell id="hRDZXHe7MTuxdJLK6Rt7-322" value="При клике возвращает комментарий в исходный вид" style="rounded=1;whiteSpace=wrap;html=1;fillColor=#F7F0FF;" parent="1" vertex="1">
          <mxGeometry x="2370" y="1400" width="120" height="60" as="geometry" />
        </mxCell>
        <mxCell id="hRDZXHe7MTuxdJLK6Rt7-323" value="Кнопка выделена серым цветом" style="rounded=1;whiteSpace=wrap;html=1;fillColor=#F7F0FF;" parent="1" vertex="1">
          <mxGeometry x="2470" y="1200" width="120" height="60" as="geometry" />
        </mxCell>
        <mxCell id="hRDZXHe7MTuxdJLK6Rt7-324" value="По умолчанию активна/кликабельна" style="rounded=1;whiteSpace=wrap;html=1;fillColor=#F7F0FF;" parent="1" vertex="1">
          <mxGeometry x="2340" y="1200" width="120" height="60" as="geometry" />
        </mxCell>
        <mxCell id="hRDZXHe7MTuxdJLK6Rt7-325" value="&lt;meta charset=&quot;utf-8&quot;&gt;&lt;span style=&quot;color: rgb(0, 0, 0); font-family: Helvetica; font-size: 12px; font-style: normal; font-variant-ligatures: normal; font-variant-caps: normal; font-weight: 400; letter-spacing: normal; orphans: 2; text-align: center; text-indent: 0px; text-transform: none; widows: 2; word-spacing: 0px; -webkit-text-stroke-width: 0px; background-color: rgb(251, 251, 251); text-decoration-thickness: initial; text-decoration-style: initial; text-decoration-color: initial; float: none; display: inline !important;&quot;&gt;При наведении меняет цвет на синий&lt;/span&gt;" style="rounded=1;whiteSpace=wrap;html=1;fillColor=#F7F0FF;" parent="1" vertex="1">
          <mxGeometry x="2490" y="1320" width="120" height="60" as="geometry" />
        </mxCell>
        <mxCell id="hRDZXHe7MTuxdJLK6Rt7-335" style="edgeStyle=orthogonalEdgeStyle;curved=1;rounded=0;orthogonalLoop=1;jettySize=auto;html=1;entryX=1;entryY=0.5;entryDx=0;entryDy=0;fillColor=#F7F0FF;" parent="1" source="hRDZXHe7MTuxdJLK6Rt7-331" target="hRDZXHe7MTuxdJLK6Rt7-296" edge="1">
          <mxGeometry relative="1" as="geometry" />
        </mxCell>
        <mxCell id="hRDZXHe7MTuxdJLK6Rt7-331" value="Кнопка выделена серым цветом" style="rounded=1;whiteSpace=wrap;html=1;fillColor=#F7F0FF;" parent="1" vertex="1">
          <mxGeometry x="2090" y="1410" width="120" height="60" as="geometry" />
        </mxCell>
        <mxCell id="hRDZXHe7MTuxdJLK6Rt7-341" style="edgeStyle=orthogonalEdgeStyle;curved=1;rounded=0;orthogonalLoop=1;jettySize=auto;html=1;entryX=0.5;entryY=0;entryDx=0;entryDy=0;fillColor=#F7F0FF;" parent="1" source="hRDZXHe7MTuxdJLK6Rt7-332" target="hRDZXHe7MTuxdJLK6Rt7-339" edge="1">
          <mxGeometry relative="1" as="geometry" />
        </mxCell>
        <mxCell id="hRDZXHe7MTuxdJLK6Rt7-332" value="&lt;meta charset=&quot;utf-8&quot;&gt;&lt;span style=&quot;color: rgb(0, 0, 0); font-family: Helvetica; font-size: 12px; font-style: normal; font-variant-ligatures: normal; font-variant-caps: normal; font-weight: 400; letter-spacing: normal; orphans: 2; text-align: center; text-indent: 0px; text-transform: none; widows: 2; word-spacing: 0px; -webkit-text-stroke-width: 0px; background-color: rgb(251, 251, 251); text-decoration-thickness: initial; text-decoration-style: initial; text-decoration-color: initial; float: none; display: inline !important;&quot;&gt;Кнопка выделена серым цветом&lt;/span&gt;" style="rounded=1;whiteSpace=wrap;html=1;fillColor=#F7F0FF;" parent="1" vertex="1">
          <mxGeometry x="2180" y="1530" width="120" height="60" as="geometry" />
        </mxCell>
        <mxCell id="hRDZXHe7MTuxdJLK6Rt7-340" style="edgeStyle=orthogonalEdgeStyle;curved=1;rounded=0;orthogonalLoop=1;jettySize=auto;html=1;fillColor=#F7F0FF;" parent="1" source="hRDZXHe7MTuxdJLK6Rt7-333" target="hRDZXHe7MTuxdJLK6Rt7-332" edge="1">
          <mxGeometry relative="1" as="geometry" />
        </mxCell>
        <mxCell id="hRDZXHe7MTuxdJLK6Rt7-333" value="Иконка &quot;урна&quot;" style="rounded=1;whiteSpace=wrap;html=1;fillColor=#F7F0FF;" parent="1" vertex="1">
          <mxGeometry x="2090" y="1633" width="120" height="60" as="geometry" />
        </mxCell>
        <mxCell id="hRDZXHe7MTuxdJLK6Rt7-338" value="&lt;meta charset=&quot;utf-8&quot;&gt;&lt;span style=&quot;color: rgb(0, 0, 0); font-family: Helvetica; font-size: 12px; font-style: normal; font-variant-ligatures: normal; font-variant-caps: normal; font-weight: 400; letter-spacing: normal; orphans: 2; text-align: center; text-indent: 0px; text-transform: none; widows: 2; word-spacing: 0px; -webkit-text-stroke-width: 0px; background-color: rgb(251, 251, 251); text-decoration-thickness: initial; text-decoration-style: initial; text-decoration-color: initial; float: none; display: inline !important;&quot;&gt;При наведении меняет цвет на синий&lt;/span&gt;" style="rounded=1;whiteSpace=wrap;html=1;fillColor=#F7F0FF;" parent="1" vertex="1">
          <mxGeometry x="2250" y="1700" width="120" height="60" as="geometry" />
        </mxCell>
        <mxCell id="hRDZXHe7MTuxdJLK6Rt7-342" style="edgeStyle=orthogonalEdgeStyle;curved=1;rounded=0;orthogonalLoop=1;jettySize=auto;html=1;entryX=0.5;entryY=0;entryDx=0;entryDy=0;fillColor=#F7F0FF;" parent="1" source="hRDZXHe7MTuxdJLK6Rt7-339" target="hRDZXHe7MTuxdJLK6Rt7-338" edge="1">
          <mxGeometry relative="1" as="geometry" />
        </mxCell>
        <mxCell id="hRDZXHe7MTuxdJLK6Rt7-343" style="edgeStyle=orthogonalEdgeStyle;curved=1;rounded=0;orthogonalLoop=1;jettySize=auto;html=1;fillColor=#F7F0FF;" parent="1" source="hRDZXHe7MTuxdJLK6Rt7-339" target="hRDZXHe7MTuxdJLK6Rt7-300" edge="1">
          <mxGeometry relative="1" as="geometry" />
        </mxCell>
        <mxCell id="hRDZXHe7MTuxdJLK6Rt7-339" value="&lt;meta charset=&quot;utf-8&quot;&gt;&lt;span style=&quot;color: rgb(0, 0, 0); font-family: Helvetica; font-size: 12px; font-style: normal; font-variant-ligatures: normal; font-variant-caps: normal; font-weight: 400; letter-spacing: normal; orphans: 2; text-align: center; text-indent: 0px; text-transform: none; widows: 2; word-spacing: 0px; -webkit-text-stroke-width: 0px; background-color: rgb(251, 251, 251); text-decoration-thickness: initial; text-decoration-style: initial; text-decoration-color: initial; float: none; display: inline !important;&quot;&gt;Кликабельна&lt;/span&gt;" style="rounded=1;whiteSpace=wrap;html=1;fillColor=#F7F0FF;" parent="1" vertex="1">
          <mxGeometry x="2320" y="1590" width="120" height="60" as="geometry" />
        </mxCell>
        <mxCell id="hRDZXHe7MTuxdJLK6Rt7-344" value="Тайтл, &quot;Удалить комментарий?&quot;" style="rounded=1;whiteSpace=wrap;html=1;fillColor=#F7F0FF;" parent="1" vertex="1">
          <mxGeometry x="2530" y="1620" width="120" height="60" as="geometry" />
        </mxCell>
        <mxCell id="hRDZXHe7MTuxdJLK6Rt7-354" style="edgeStyle=orthogonalEdgeStyle;curved=1;rounded=0;orthogonalLoop=1;jettySize=auto;html=1;entryX=0.5;entryY=1;entryDx=0;entryDy=0;fillColor=#F7F0FF;" parent="1" source="hRDZXHe7MTuxdJLK6Rt7-345" target="hRDZXHe7MTuxdJLK6Rt7-349" edge="1">
          <mxGeometry relative="1" as="geometry" />
        </mxCell>
        <mxCell id="hRDZXHe7MTuxdJLK6Rt7-355" style="edgeStyle=orthogonalEdgeStyle;curved=1;rounded=0;orthogonalLoop=1;jettySize=auto;html=1;entryX=0.5;entryY=0;entryDx=0;entryDy=0;fillColor=#F7F0FF;" parent="1" source="hRDZXHe7MTuxdJLK6Rt7-345" target="hRDZXHe7MTuxdJLK6Rt7-348" edge="1">
          <mxGeometry relative="1" as="geometry" />
        </mxCell>
        <mxCell id="hRDZXHe7MTuxdJLK6Rt7-362" style="edgeStyle=orthogonalEdgeStyle;curved=1;rounded=0;orthogonalLoop=1;jettySize=auto;html=1;entryX=0;entryY=0.5;entryDx=0;entryDy=0;fillColor=#F7F0FF;" parent="1" source="hRDZXHe7MTuxdJLK6Rt7-345" target="hRDZXHe7MTuxdJLK6Rt7-361" edge="1">
          <mxGeometry relative="1" as="geometry" />
        </mxCell>
        <mxCell id="hRDZXHe7MTuxdJLK6Rt7-345" value="Кнопка &quot;отмена&quot;" style="rounded=1;whiteSpace=wrap;html=1;fillColor=#F7F0FF;" parent="1" vertex="1">
          <mxGeometry x="2670" y="1650" width="120" height="60" as="geometry" />
        </mxCell>
        <mxCell id="hRDZXHe7MTuxdJLK6Rt7-367" style="edgeStyle=orthogonalEdgeStyle;curved=1;rounded=0;orthogonalLoop=1;jettySize=auto;html=1;entryX=1;entryY=0.5;entryDx=0;entryDy=0;fillColor=#F7F0FF;" parent="1" source="hRDZXHe7MTuxdJLK6Rt7-346" target="hRDZXHe7MTuxdJLK6Rt7-364" edge="1">
          <mxGeometry relative="1" as="geometry" />
        </mxCell>
        <mxCell id="hRDZXHe7MTuxdJLK6Rt7-368" style="edgeStyle=orthogonalEdgeStyle;curved=1;rounded=0;orthogonalLoop=1;jettySize=auto;html=1;entryX=0;entryY=0.5;entryDx=0;entryDy=0;fillColor=#F7F0FF;" parent="1" source="hRDZXHe7MTuxdJLK6Rt7-346" target="hRDZXHe7MTuxdJLK6Rt7-363" edge="1">
          <mxGeometry relative="1" as="geometry" />
        </mxCell>
        <mxCell id="hRDZXHe7MTuxdJLK6Rt7-369" style="edgeStyle=orthogonalEdgeStyle;curved=1;rounded=0;orthogonalLoop=1;jettySize=auto;html=1;entryX=0.5;entryY=0;entryDx=0;entryDy=0;fillColor=#F7F0FF;" parent="1" source="hRDZXHe7MTuxdJLK6Rt7-346" target="hRDZXHe7MTuxdJLK6Rt7-365" edge="1">
          <mxGeometry relative="1" as="geometry" />
        </mxCell>
        <mxCell id="hRDZXHe7MTuxdJLK6Rt7-346" value="Кнапка &quot;ок&quot;" style="rounded=1;whiteSpace=wrap;html=1;fillColor=#F7F0FF;" parent="1" vertex="1">
          <mxGeometry x="2720" y="1820" width="120" height="60" as="geometry" />
        </mxCell>
        <mxCell id="hRDZXHe7MTuxdJLK6Rt7-348" value="Кнопка выделена серым цветом" style="rounded=1;whiteSpace=wrap;html=1;fillColor=#F7F0FF;" parent="1" vertex="1">
          <mxGeometry x="2830" y="1724" width="120" height="60" as="geometry" />
        </mxCell>
        <mxCell id="hRDZXHe7MTuxdJLK6Rt7-349" value="При наведении меняет цвет на синий" style="rounded=1;whiteSpace=wrap;html=1;fillColor=#F7F0FF;" parent="1" vertex="1">
          <mxGeometry x="2810" y="1560" width="120" height="60" as="geometry" />
        </mxCell>
        <mxCell id="hRDZXHe7MTuxdJLK6Rt7-360" value="" style="edgeStyle=orthogonalEdgeStyle;curved=1;rounded=0;orthogonalLoop=1;jettySize=auto;html=1;fillColor=#F7F0FF;" parent="1" source="hRDZXHe7MTuxdJLK6Rt7-357" target="hRDZXHe7MTuxdJLK6Rt7-359" edge="1">
          <mxGeometry relative="1" as="geometry" />
        </mxCell>
        <mxCell id="hRDZXHe7MTuxdJLK6Rt7-357" value="Крестик" style="rounded=1;whiteSpace=wrap;html=1;fillColor=#F7F0FF;" parent="1" vertex="1">
          <mxGeometry x="2530" y="1810" width="120" height="60" as="geometry" />
        </mxCell>
        <mxCell id="hRDZXHe7MTuxdJLK6Rt7-359" value="При нажатии закрывает окно" style="whiteSpace=wrap;html=1;rounded=1;fillColor=#F7F0FF;" parent="1" vertex="1">
          <mxGeometry x="2330" y="1810" width="120" height="60" as="geometry" />
        </mxCell>
        <mxCell id="hRDZXHe7MTuxdJLK6Rt7-361" value="При нажатии закрывает окно" style="whiteSpace=wrap;html=1;rounded=1;fillColor=#F7F0FF;" parent="1" vertex="1">
          <mxGeometry x="2960" y="1650" width="120" height="60" as="geometry" />
        </mxCell>
        <mxCell id="hRDZXHe7MTuxdJLK6Rt7-363" value="Кнопка выделена желтым цветом" style="rounded=1;whiteSpace=wrap;html=1;fillColor=#F7F0FF;" parent="1" vertex="1">
          <mxGeometry x="2840" y="1910" width="120" height="60" as="geometry" />
        </mxCell>
        <mxCell id="hRDZXHe7MTuxdJLK6Rt7-364" value="При наведении меняет цвет на синий" style="rounded=1;whiteSpace=wrap;html=1;fillColor=#F7F0FF;" parent="1" vertex="1">
          <mxGeometry x="2620" y="1920" width="120" height="60" as="geometry" />
        </mxCell>
        <mxCell id="hRDZXHe7MTuxdJLK6Rt7-370" style="edgeStyle=orthogonalEdgeStyle;curved=1;rounded=0;orthogonalLoop=1;jettySize=auto;html=1;entryX=0;entryY=0.5;entryDx=0;entryDy=0;fillColor=#F7F0FF;" parent="1" source="hRDZXHe7MTuxdJLK6Rt7-365" target="hRDZXHe7MTuxdJLK6Rt7-366" edge="1">
          <mxGeometry relative="1" as="geometry" />
        </mxCell>
        <mxCell id="hRDZXHe7MTuxdJLK6Rt7-365" value="При нажатии удаляет комментарий" style="whiteSpace=wrap;html=1;rounded=1;fillColor=#F7F0FF;" parent="1" vertex="1">
          <mxGeometry x="2740" y="1990" width="120" height="60" as="geometry" />
        </mxCell>
        <mxCell id="hRDZXHe7MTuxdJLK6Rt7-366" value="Всплывающее сообщение &quot; Комментарий успешно удален&quot;" style="rounded=1;whiteSpace=wrap;html=1;fillColor=#F7F0FF;" parent="1" vertex="1">
          <mxGeometry x="2930" y="1990" width="120" height="60" as="geometry" />
        </mxCell>
        <mxCell id="hRDZXHe7MTuxdJLK6Rt7-385" style="edgeStyle=orthogonalEdgeStyle;curved=1;rounded=0;orthogonalLoop=1;jettySize=auto;html=1;entryX=0.5;entryY=1;entryDx=0;entryDy=0;fillColor=#FFF2CC;" parent="1" source="hRDZXHe7MTuxdJLK6Rt7-371" target="hRDZXHe7MTuxdJLK6Rt7-382" edge="1">
          <mxGeometry relative="1" as="geometry" />
        </mxCell>
        <mxCell id="hRDZXHe7MTuxdJLK6Rt7-395" style="edgeStyle=orthogonalEdgeStyle;curved=1;rounded=0;orthogonalLoop=1;jettySize=auto;html=1;" parent="1" source="hRDZXHe7MTuxdJLK6Rt7-371" target="hRDZXHe7MTuxdJLK6Rt7-387" edge="1">
          <mxGeometry relative="1" as="geometry" />
        </mxCell>
        <mxCell id="hRDZXHe7MTuxdJLK6Rt7-397" style="edgeStyle=orthogonalEdgeStyle;curved=1;rounded=0;orthogonalLoop=1;jettySize=auto;html=1;" parent="1" source="hRDZXHe7MTuxdJLK6Rt7-371" target="hRDZXHe7MTuxdJLK6Rt7-393" edge="1">
          <mxGeometry relative="1" as="geometry" />
        </mxCell>
        <mxCell id="hRDZXHe7MTuxdJLK6Rt7-398" style="edgeStyle=orthogonalEdgeStyle;curved=1;rounded=0;orthogonalLoop=1;jettySize=auto;html=1;" parent="1" source="hRDZXHe7MTuxdJLK6Rt7-371" target="hRDZXHe7MTuxdJLK6Rt7-389" edge="1">
          <mxGeometry relative="1" as="geometry" />
        </mxCell>
        <mxCell id="hRDZXHe7MTuxdJLK6Rt7-401" style="edgeStyle=orthogonalEdgeStyle;curved=1;rounded=0;orthogonalLoop=1;jettySize=auto;html=1;entryX=0.458;entryY=-0.006;entryDx=0;entryDy=0;entryPerimeter=0;" parent="1" source="hRDZXHe7MTuxdJLK6Rt7-371" target="hRDZXHe7MTuxdJLK6Rt7-390" edge="1">
          <mxGeometry relative="1" as="geometry" />
        </mxCell>
        <mxCell id="hRDZXHe7MTuxdJLK6Rt7-427" style="edgeStyle=orthogonalEdgeStyle;curved=1;rounded=0;orthogonalLoop=1;jettySize=auto;html=1;fillColor=#FFF2CC;" parent="1" source="hRDZXHe7MTuxdJLK6Rt7-371" target="hRDZXHe7MTuxdJLK6Rt7-402" edge="1">
          <mxGeometry relative="1" as="geometry" />
        </mxCell>
        <mxCell id="hRDZXHe7MTuxdJLK6Rt7-428" style="edgeStyle=orthogonalEdgeStyle;curved=1;rounded=0;orthogonalLoop=1;jettySize=auto;html=1;" parent="1" source="hRDZXHe7MTuxdJLK6Rt7-371" target="hRDZXHe7MTuxdJLK6Rt7-391" edge="1">
          <mxGeometry relative="1" as="geometry" />
        </mxCell>
        <mxCell id="hRDZXHe7MTuxdJLK6Rt7-429" style="edgeStyle=orthogonalEdgeStyle;curved=1;rounded=0;orthogonalLoop=1;jettySize=auto;html=1;entryX=0;entryY=0.5;entryDx=0;entryDy=0;" parent="1" source="hRDZXHe7MTuxdJLK6Rt7-371" target="hRDZXHe7MTuxdJLK6Rt7-388" edge="1">
          <mxGeometry relative="1" as="geometry" />
        </mxCell>
        <mxCell id="hRDZXHe7MTuxdJLK6Rt7-371" value="Комментарий" style="rounded=1;whiteSpace=wrap;html=1;fillColor=#FFF2CC;" parent="1" vertex="1">
          <mxGeometry x="1220" y="2230" width="120" height="60" as="geometry" />
        </mxCell>
        <mxCell id="hRDZXHe7MTuxdJLK6Rt7-378" style="edgeStyle=orthogonalEdgeStyle;curved=1;rounded=0;orthogonalLoop=1;jettySize=auto;html=1;entryX=1;entryY=0.5;entryDx=0;entryDy=0;fillColor=#FFF2CC;" parent="1" source="hRDZXHe7MTuxdJLK6Rt7-372" target="hRDZXHe7MTuxdJLK6Rt7-373" edge="1">
          <mxGeometry relative="1" as="geometry" />
        </mxCell>
        <mxCell id="hRDZXHe7MTuxdJLK6Rt7-379" style="edgeStyle=orthogonalEdgeStyle;curved=1;rounded=0;orthogonalLoop=1;jettySize=auto;html=1;entryX=0;entryY=0.5;entryDx=0;entryDy=0;fillColor=#FFF2CC;" parent="1" source="hRDZXHe7MTuxdJLK6Rt7-372" target="hRDZXHe7MTuxdJLK6Rt7-375" edge="1">
          <mxGeometry relative="1" as="geometry" />
        </mxCell>
        <mxCell id="hRDZXHe7MTuxdJLK6Rt7-372" value="Пагинация" style="rounded=1;whiteSpace=wrap;html=1;fillColor=#FFF2CC;" parent="1" vertex="1">
          <mxGeometry x="1001" y="2230" width="120" height="60" as="geometry" />
        </mxCell>
        <mxCell id="hRDZXHe7MTuxdJLK6Rt7-380" style="edgeStyle=orthogonalEdgeStyle;curved=1;rounded=0;orthogonalLoop=1;jettySize=auto;html=1;entryX=0.5;entryY=1;entryDx=0;entryDy=0;fillColor=#FFF2CC;" parent="1" source="hRDZXHe7MTuxdJLK6Rt7-373" target="hRDZXHe7MTuxdJLK6Rt7-376" edge="1">
          <mxGeometry relative="1" as="geometry" />
        </mxCell>
        <mxCell id="hRDZXHe7MTuxdJLK6Rt7-373" value="Нумерация кликабельна" style="whiteSpace=wrap;html=1;rounded=1;fillColor=#FFF2CC;" parent="1" vertex="1">
          <mxGeometry x="901" y="2350" width="100" height="60" as="geometry" />
        </mxCell>
        <mxCell id="hRDZXHe7MTuxdJLK6Rt7-375" value="При наведении меняет увет на синий" style="rounded=1;whiteSpace=wrap;html=1;fillColor=#FFF2CC;" parent="1" vertex="1">
          <mxGeometry x="1080" y="2350" width="120" height="60" as="geometry" />
        </mxCell>
        <mxCell id="hRDZXHe7MTuxdJLK6Rt7-376" value="При клике переход на&amp;nbsp;следующею&amp;nbsp;страницу с комментариями" style="whiteSpace=wrap;html=1;rounded=1;fillColor=#FFF2CC;" parent="1" vertex="1">
          <mxGeometry x="740" y="2250" width="140" height="60" as="geometry" />
        </mxCell>
        <mxCell id="hRDZXHe7MTuxdJLK6Rt7-386" style="edgeStyle=orthogonalEdgeStyle;curved=1;rounded=0;orthogonalLoop=1;jettySize=auto;html=1;entryX=0.5;entryY=1;entryDx=0;entryDy=0;fillColor=#FFF2CC;" parent="1" source="hRDZXHe7MTuxdJLK6Rt7-382" target="hRDZXHe7MTuxdJLK6Rt7-384" edge="1">
          <mxGeometry relative="1" as="geometry" />
        </mxCell>
        <mxCell id="hRDZXHe7MTuxdJLK6Rt7-382" value="Аватар автора" style="rounded=1;whiteSpace=wrap;html=1;fillColor=#FFF2CC;" parent="1" vertex="1">
          <mxGeometry x="1380" y="2170" width="100" height="60" as="geometry" />
        </mxCell>
        <mxCell id="hRDZXHe7MTuxdJLK6Rt7-384" value="Не кликабельно" style="rounded=1;whiteSpace=wrap;html=1;fillColor=#FFF2CC;" parent="1" vertex="1">
          <mxGeometry x="1250" y="2100" width="120" height="60" as="geometry" />
        </mxCell>
        <mxCell id="hRDZXHe7MTuxdJLK6Rt7-410" style="edgeStyle=orthogonalEdgeStyle;curved=1;rounded=0;orthogonalLoop=1;jettySize=auto;html=1;entryX=0.5;entryY=1;entryDx=0;entryDy=0;fillColor=#FFF2CC;" parent="1" source="hRDZXHe7MTuxdJLK6Rt7-387" target="hRDZXHe7MTuxdJLK6Rt7-409" edge="1">
          <mxGeometry relative="1" as="geometry" />
        </mxCell>
        <mxCell id="hRDZXHe7MTuxdJLK6Rt7-387" value="Имя автора" style="rounded=1;whiteSpace=wrap;html=1;fillColor=#FFF2CC;" parent="1" vertex="1">
          <mxGeometry x="1510" y="2140" width="90" height="60" as="geometry" />
        </mxCell>
        <mxCell id="hRDZXHe7MTuxdJLK6Rt7-430" style="edgeStyle=orthogonalEdgeStyle;curved=1;rounded=0;orthogonalLoop=1;jettySize=auto;html=1;entryX=0;entryY=0.5;entryDx=0;entryDy=0;fillColor=#FFF2CC;" parent="1" source="hRDZXHe7MTuxdJLK6Rt7-388" target="hRDZXHe7MTuxdJLK6Rt7-423" edge="1">
          <mxGeometry relative="1" as="geometry" />
        </mxCell>
        <mxCell id="hRDZXHe7MTuxdJLK6Rt7-431" style="edgeStyle=orthogonalEdgeStyle;curved=1;rounded=0;orthogonalLoop=1;jettySize=auto;html=1;entryX=0;entryY=0.5;entryDx=0;entryDy=0;fillColor=#FFF2CC;" parent="1" source="hRDZXHe7MTuxdJLK6Rt7-388" target="hRDZXHe7MTuxdJLK6Rt7-424" edge="1">
          <mxGeometry relative="1" as="geometry" />
        </mxCell>
        <mxCell id="hRDZXHe7MTuxdJLK6Rt7-388" value="Тело комментария" style="rounded=1;whiteSpace=wrap;html=1;fillColor=#FFF2CC;" parent="1" vertex="1">
          <mxGeometry x="1810" y="2330" width="120" height="60" as="geometry" />
        </mxCell>
        <mxCell id="hRDZXHe7MTuxdJLK6Rt7-414" style="edgeStyle=orthogonalEdgeStyle;curved=1;rounded=0;orthogonalLoop=1;jettySize=auto;html=1;entryX=0.5;entryY=1;entryDx=0;entryDy=0;fillColor=#FFF2CC;" parent="1" source="hRDZXHe7MTuxdJLK6Rt7-389" target="hRDZXHe7MTuxdJLK6Rt7-413" edge="1">
          <mxGeometry relative="1" as="geometry" />
        </mxCell>
        <mxCell id="hRDZXHe7MTuxdJLK6Rt7-389" value="Дата и время комментария" style="rounded=1;whiteSpace=wrap;html=1;fillColor=#FFF2CC;" parent="1" vertex="1">
          <mxGeometry x="1720" y="2230" width="120" height="60" as="geometry" />
        </mxCell>
        <mxCell id="hRDZXHe7MTuxdJLK6Rt7-426" style="edgeStyle=orthogonalEdgeStyle;curved=1;rounded=0;orthogonalLoop=1;jettySize=auto;html=1;entryX=0.5;entryY=0;entryDx=0;entryDy=0;fillColor=#FFF2CC;" parent="1" source="hRDZXHe7MTuxdJLK6Rt7-390" target="hRDZXHe7MTuxdJLK6Rt7-415" edge="1">
          <mxGeometry relative="1" as="geometry" />
        </mxCell>
        <mxCell id="hRDZXHe7MTuxdJLK6Rt7-390" value="Тип контента" style="rounded=1;whiteSpace=wrap;html=1;fillColor=#FFF2CC;" parent="1" vertex="1">
          <mxGeometry x="1480" y="2480" width="120" height="60" as="geometry" />
        </mxCell>
        <mxCell id="hRDZXHe7MTuxdJLK6Rt7-420" style="edgeStyle=orthogonalEdgeStyle;curved=1;rounded=0;orthogonalLoop=1;jettySize=auto;html=1;entryX=0;entryY=0.5;entryDx=0;entryDy=0;fillColor=#FFF2CC;" parent="1" source="hRDZXHe7MTuxdJLK6Rt7-391" target="hRDZXHe7MTuxdJLK6Rt7-419" edge="1">
          <mxGeometry relative="1" as="geometry" />
        </mxCell>
        <mxCell id="hRDZXHe7MTuxdJLK6Rt7-391" value="Гиперссылка,откуда пришел комментарий&lt;span style=&quot;color: rgb(32, 33, 36); font-family: &amp;quot;Google Sans&amp;quot;, arial, sans-serif; font-size: 20px; text-align: left; background-color: rgb(255, 255, 255);&quot;&gt;&amp;nbsp;&lt;/span&gt;&amp;nbsp;" style="rounded=1;whiteSpace=wrap;html=1;fillColor=#FFF2CC;" parent="1" vertex="1">
          <mxGeometry x="1580" y="2360" width="120" height="60" as="geometry" />
        </mxCell>
        <mxCell id="hRDZXHe7MTuxdJLK6Rt7-412" style="edgeStyle=orthogonalEdgeStyle;curved=1;rounded=0;orthogonalLoop=1;jettySize=auto;html=1;entryX=0.5;entryY=1;entryDx=0;entryDy=0;fillColor=#FFF2CC;" parent="1" source="hRDZXHe7MTuxdJLK6Rt7-393" target="hRDZXHe7MTuxdJLK6Rt7-411" edge="1">
          <mxGeometry relative="1" as="geometry" />
        </mxCell>
        <mxCell id="hRDZXHe7MTuxdJLK6Rt7-393" value="E-mail автора" style="rounded=1;whiteSpace=wrap;html=1;fillColor=#FFF2CC;" parent="1" vertex="1">
          <mxGeometry x="1641" y="2175" width="119" height="50" as="geometry" />
        </mxCell>
        <mxCell id="hRDZXHe7MTuxdJLK6Rt7-405" value="" style="edgeStyle=orthogonalEdgeStyle;curved=1;rounded=0;orthogonalLoop=1;jettySize=auto;html=1;" parent="1" source="hRDZXHe7MTuxdJLK6Rt7-402" target="hRDZXHe7MTuxdJLK6Rt7-404" edge="1">
          <mxGeometry relative="1" as="geometry" />
        </mxCell>
        <mxCell id="hRDZXHe7MTuxdJLK6Rt7-406" value="" style="edgeStyle=orthogonalEdgeStyle;curved=1;rounded=0;orthogonalLoop=1;jettySize=auto;html=1;" parent="1" source="hRDZXHe7MTuxdJLK6Rt7-402" target="hRDZXHe7MTuxdJLK6Rt7-404" edge="1">
          <mxGeometry relative="1" as="geometry" />
        </mxCell>
        <mxCell id="hRDZXHe7MTuxdJLK6Rt7-402" value="Бейдж статуса" style="rounded=1;whiteSpace=wrap;html=1;fillColor=#FFF2CC;" parent="1" vertex="1">
          <mxGeometry x="1360" y="2350" width="120" height="60" as="geometry" />
        </mxCell>
        <mxCell id="hRDZXHe7MTuxdJLK6Rt7-408" style="edgeStyle=orthogonalEdgeStyle;curved=1;rounded=0;orthogonalLoop=1;jettySize=auto;html=1;fillColor=#FFF2CC;" parent="1" source="hRDZXHe7MTuxdJLK6Rt7-404" target="hRDZXHe7MTuxdJLK6Rt7-407" edge="1">
          <mxGeometry relative="1" as="geometry" />
        </mxCell>
        <mxCell id="hRDZXHe7MTuxdJLK6Rt7-404" value="Одобрен" style="whiteSpace=wrap;html=1;rounded=1;fillColor=#FFF2CC;" parent="1" vertex="1">
          <mxGeometry x="1320" y="2450" width="80" height="60" as="geometry" />
        </mxCell>
        <mxCell id="hRDZXHe7MTuxdJLK6Rt7-407" value="Некликабельна" style="rounded=1;whiteSpace=wrap;html=1;fillColor=#FFF2CC;" parent="1" vertex="1">
          <mxGeometry x="1150" y="2470" width="120" height="60" as="geometry" />
        </mxCell>
        <mxCell id="hRDZXHe7MTuxdJLK6Rt7-409" value="Не кликабельно" style="rounded=1;whiteSpace=wrap;html=1;fillColor=#FFF2CC;" parent="1" vertex="1">
          <mxGeometry x="1630" y="2060" width="120" height="60" as="geometry" />
        </mxCell>
        <mxCell id="hRDZXHe7MTuxdJLK6Rt7-411" value="Не кликабельно" style="rounded=1;whiteSpace=wrap;html=1;fillColor=#FFF2CC;" parent="1" vertex="1">
          <mxGeometry x="1780" y="2090" width="120" height="60" as="geometry" />
        </mxCell>
        <mxCell id="hRDZXHe7MTuxdJLK6Rt7-413" value="Не кликабельно" style="rounded=1;whiteSpace=wrap;html=1;fillColor=#FFF2CC;" parent="1" vertex="1">
          <mxGeometry x="1880" y="2170" width="120" height="60" as="geometry" />
        </mxCell>
        <mxCell id="hRDZXHe7MTuxdJLK6Rt7-415" value="Не кликабельно" style="rounded=1;whiteSpace=wrap;html=1;fillColor=#FFF2CC;" parent="1" vertex="1">
          <mxGeometry x="1330" y="2540" width="120" height="60" as="geometry" />
        </mxCell>
        <mxCell id="hRDZXHe7MTuxdJLK6Rt7-422" value="" style="edgeStyle=orthogonalEdgeStyle;curved=1;rounded=0;orthogonalLoop=1;jettySize=auto;html=1;fillColor=#FFF2CC;" parent="1" source="hRDZXHe7MTuxdJLK6Rt7-419" target="hRDZXHe7MTuxdJLK6Rt7-421" edge="1">
          <mxGeometry relative="1" as="geometry" />
        </mxCell>
        <mxCell id="hRDZXHe7MTuxdJLK6Rt7-419" value="Кликабельна" style="whiteSpace=wrap;html=1;rounded=1;fillColor=#FFF2CC;" parent="1" vertex="1">
          <mxGeometry x="1660" y="2450" width="120" height="60" as="geometry" />
        </mxCell>
        <mxCell id="hRDZXHe7MTuxdJLK6Rt7-421" value="По клику переход в один из разделов библиотеки" style="whiteSpace=wrap;html=1;rounded=1;fillColor=#FFF2CC;" parent="1" vertex="1">
          <mxGeometry x="1600" y="2550" width="120" height="60" as="geometry" />
        </mxCell>
        <mxCell id="hRDZXHe7MTuxdJLK6Rt7-495" style="edgeStyle=orthogonalEdgeStyle;curved=1;rounded=0;orthogonalLoop=1;jettySize=auto;html=1;entryX=0.5;entryY=1;entryDx=0;entryDy=0;fillColor=#FFF2CC;" parent="1" source="hRDZXHe7MTuxdJLK6Rt7-423" target="hRDZXHe7MTuxdJLK6Rt7-465" edge="1">
          <mxGeometry relative="1" as="geometry" />
        </mxCell>
        <mxCell id="hRDZXHe7MTuxdJLK6Rt7-423" value="редактирвть" style="whiteSpace=wrap;html=1;rounded=1;fillColor=#FFF2CC;" parent="1" vertex="1">
          <mxGeometry x="1980" y="2270" width="120" height="60" as="geometry" />
        </mxCell>
        <mxCell id="hRDZXHe7MTuxdJLK6Rt7-540" style="edgeStyle=orthogonalEdgeStyle;curved=1;rounded=0;orthogonalLoop=1;jettySize=auto;html=1;entryX=0;entryY=0.5;entryDx=0;entryDy=0;fillColor=#FFF2CC;" parent="1" source="hRDZXHe7MTuxdJLK6Rt7-424" target="hRDZXHe7MTuxdJLK6Rt7-517" edge="1">
          <mxGeometry relative="1" as="geometry" />
        </mxCell>
        <mxCell id="hRDZXHe7MTuxdJLK6Rt7-424" value="удалить" style="whiteSpace=wrap;html=1;rounded=1;fillColor=#FFF2CC;" parent="1" vertex="1">
          <mxGeometry x="1980" y="2400" width="120" height="60" as="geometry" />
        </mxCell>
        <mxCell id="hRDZXHe7MTuxdJLK6Rt7-496" style="edgeStyle=orthogonalEdgeStyle;curved=1;rounded=0;orthogonalLoop=1;jettySize=auto;html=1;entryX=0;entryY=0.5;entryDx=0;entryDy=0;fillColor=#FFF2CC;" parent="1" source="hRDZXHe7MTuxdJLK6Rt7-465" target="hRDZXHe7MTuxdJLK6Rt7-468" edge="1">
          <mxGeometry relative="1" as="geometry" />
        </mxCell>
        <mxCell id="hRDZXHe7MTuxdJLK6Rt7-499" style="edgeStyle=orthogonalEdgeStyle;curved=1;rounded=0;orthogonalLoop=1;jettySize=auto;html=1;entryX=0.5;entryY=0;entryDx=0;entryDy=0;fillColor=#FFF2CC;" parent="1" source="hRDZXHe7MTuxdJLK6Rt7-465" target="hRDZXHe7MTuxdJLK6Rt7-494" edge="1">
          <mxGeometry relative="1" as="geometry" />
        </mxCell>
        <mxCell id="hRDZXHe7MTuxdJLK6Rt7-465" value="Иконка &quot;карандаш&quot;" style="rounded=1;whiteSpace=wrap;html=1;fillColor=#FFF2CC;" parent="1" vertex="1">
          <mxGeometry x="2110" y="2190" width="120" height="60" as="geometry" />
        </mxCell>
        <mxCell id="hRDZXHe7MTuxdJLK6Rt7-501" style="edgeStyle=orthogonalEdgeStyle;curved=1;rounded=0;orthogonalLoop=1;jettySize=auto;html=1;entryX=0;entryY=0.5;entryDx=0;entryDy=0;fillColor=#FFF2CC;" parent="1" source="hRDZXHe7MTuxdJLK6Rt7-468" target="hRDZXHe7MTuxdJLK6Rt7-476" edge="1">
          <mxGeometry relative="1" as="geometry" />
        </mxCell>
        <mxCell id="hRDZXHe7MTuxdJLK6Rt7-468" value="Кликабельна" style="rounded=1;whiteSpace=wrap;html=1;fillColor=#FFF2CC;" parent="1" vertex="1">
          <mxGeometry x="2250" y="2100" width="120" height="60" as="geometry" />
        </mxCell>
        <mxCell id="hRDZXHe7MTuxdJLK6Rt7-469" value="" style="edgeStyle=orthogonalEdgeStyle;curved=1;rounded=0;orthogonalLoop=1;jettySize=auto;html=1;fillColor=#FFF2CC;" parent="1" source="hRDZXHe7MTuxdJLK6Rt7-470" target="hRDZXHe7MTuxdJLK6Rt7-480" edge="1">
          <mxGeometry relative="1" as="geometry" />
        </mxCell>
        <mxCell id="hRDZXHe7MTuxdJLK6Rt7-470" value="&lt;span style=&quot;color: rgb(0, 0, 0); font-family: Helvetica; font-size: 12px; font-style: normal; font-variant-ligatures: normal; font-variant-caps: normal; font-weight: 400; letter-spacing: normal; orphans: 2; text-align: center; text-indent: 0px; text-transform: none; widows: 2; word-spacing: 0px; -webkit-text-stroke-width: 0px; text-decoration-thickness: initial; text-decoration-style: initial; text-decoration-color: initial; float: none; display: inline !important;&quot;&gt;По умолчанию не активна&lt;/span&gt;" style="rounded=1;whiteSpace=wrap;html=1;fillColor=#FFF2CC;labelBackgroundColor=none;" parent="1" vertex="1">
          <mxGeometry x="2670" y="2180" width="120" height="60" as="geometry" />
        </mxCell>
        <mxCell id="hRDZXHe7MTuxdJLK6Rt7-471" style="edgeStyle=orthogonalEdgeStyle;curved=1;rounded=0;orthogonalLoop=1;jettySize=auto;html=1;fillColor=#FFF2CC;" parent="1" source="hRDZXHe7MTuxdJLK6Rt7-472" target="hRDZXHe7MTuxdJLK6Rt7-470" edge="1">
          <mxGeometry relative="1" as="geometry" />
        </mxCell>
        <mxCell id="hRDZXHe7MTuxdJLK6Rt7-472" value="Кнопка &quot;Сохранить&quot;&amp;nbsp;" style="rounded=1;whiteSpace=wrap;html=1;fillColor=#FFF2CC;" parent="1" vertex="1">
          <mxGeometry x="2620" y="2080" width="120" height="60" as="geometry" />
        </mxCell>
        <mxCell id="hRDZXHe7MTuxdJLK6Rt7-473" value="При наведении меняет цвет на синий" style="rounded=1;whiteSpace=wrap;html=1;fillColor=#FFF2CC;" parent="1" vertex="1">
          <mxGeometry x="2330" y="2180" width="120" height="60" as="geometry" />
        </mxCell>
        <mxCell id="hRDZXHe7MTuxdJLK6Rt7-474" style="edgeStyle=orthogonalEdgeStyle;curved=1;rounded=0;orthogonalLoop=1;jettySize=auto;html=1;fillColor=#FFF2CC;" parent="1" source="hRDZXHe7MTuxdJLK6Rt7-476" target="hRDZXHe7MTuxdJLK6Rt7-472" edge="1">
          <mxGeometry relative="1" as="geometry" />
        </mxCell>
        <mxCell id="hRDZXHe7MTuxdJLK6Rt7-502" style="edgeStyle=orthogonalEdgeStyle;curved=1;rounded=0;orthogonalLoop=1;jettySize=auto;html=1;fillColor=#FFF2CC;" parent="1" source="hRDZXHe7MTuxdJLK6Rt7-476" target="hRDZXHe7MTuxdJLK6Rt7-488" edge="1">
          <mxGeometry relative="1" as="geometry" />
        </mxCell>
        <mxCell id="hRDZXHe7MTuxdJLK6Rt7-476" value="При клике раскрывает тело комментария" style="rounded=1;whiteSpace=wrap;html=1;fillColor=#FFF2CC;" parent="1" vertex="1">
          <mxGeometry x="2440" y="2090" width="120" height="60" as="geometry" />
        </mxCell>
        <mxCell id="hRDZXHe7MTuxdJLK6Rt7-477" value="" style="edgeStyle=orthogonalEdgeStyle;curved=1;rounded=0;orthogonalLoop=1;jettySize=auto;html=1;fillColor=#FFF2CC;" parent="1" source="hRDZXHe7MTuxdJLK6Rt7-480" target="hRDZXHe7MTuxdJLK6Rt7-481" edge="1">
          <mxGeometry relative="1" as="geometry" />
        </mxCell>
        <mxCell id="hRDZXHe7MTuxdJLK6Rt7-478" style="edgeStyle=orthogonalEdgeStyle;curved=1;rounded=0;orthogonalLoop=1;jettySize=auto;html=1;fillColor=#FFF2CC;" parent="1" source="hRDZXHe7MTuxdJLK6Rt7-480" target="hRDZXHe7MTuxdJLK6Rt7-482" edge="1">
          <mxGeometry relative="1" as="geometry" />
        </mxCell>
        <mxCell id="hRDZXHe7MTuxdJLK6Rt7-479" value="" style="edgeStyle=orthogonalEdgeStyle;curved=1;rounded=0;orthogonalLoop=1;jettySize=auto;html=1;fillColor=#FFF2CC;" parent="1" source="hRDZXHe7MTuxdJLK6Rt7-480" target="hRDZXHe7MTuxdJLK6Rt7-483" edge="1">
          <mxGeometry relative="1" as="geometry" />
        </mxCell>
        <mxCell id="hRDZXHe7MTuxdJLK6Rt7-480" value="Кликабельна после ввода текста" style="whiteSpace=wrap;html=1;rounded=1;fillColor=#FFF2CC;" parent="1" vertex="1">
          <mxGeometry x="2850" y="2180" width="120" height="60" as="geometry" />
        </mxCell>
        <mxCell id="hRDZXHe7MTuxdJLK6Rt7-481" value="&lt;meta charset=&quot;utf-8&quot;&gt;&lt;span style=&quot;color: rgb(0, 0, 0); font-family: Helvetica; font-size: 12px; font-style: normal; font-variant-ligatures: normal; font-variant-caps: normal; font-weight: 400; letter-spacing: normal; orphans: 2; text-align: center; text-indent: 0px; text-transform: none; widows: 2; word-spacing: 0px; -webkit-text-stroke-width: 0px; text-decoration-thickness: initial; text-decoration-style: initial; text-decoration-color: initial; float: none; display: inline !important;&quot;&gt;Кнопка выделена желтым цветом&lt;/span&gt;" style="whiteSpace=wrap;html=1;rounded=1;fillColor=#FFF2CC;labelBackgroundColor=none;" parent="1" vertex="1">
          <mxGeometry x="2775" y="2080" width="120" height="60" as="geometry" />
        </mxCell>
        <mxCell id="hRDZXHe7MTuxdJLK6Rt7-482" value="&lt;meta charset=&quot;utf-8&quot;&gt;&lt;span style=&quot;color: rgb(0, 0, 0); font-family: Helvetica; font-size: 12px; font-style: normal; font-variant-ligatures: normal; font-variant-caps: normal; font-weight: 400; letter-spacing: normal; orphans: 2; text-align: center; text-indent: 0px; text-transform: none; widows: 2; word-spacing: 0px; -webkit-text-stroke-width: 0px; text-decoration-thickness: initial; text-decoration-style: initial; text-decoration-color: initial; float: none; display: inline !important;&quot;&gt;При наведении меняет цвет на синий&lt;/span&gt;" style="rounded=1;whiteSpace=wrap;html=1;fillColor=#FFF2CC;labelBackgroundColor=none;" parent="1" vertex="1">
          <mxGeometry x="2940" y="2070" width="120" height="60" as="geometry" />
        </mxCell>
        <mxCell id="hRDZXHe7MTuxdJLK6Rt7-483" value="При клике всплывает сообщение &quot;комментарий успешно обновлен&quot;" style="whiteSpace=wrap;html=1;rounded=1;fillColor=#FFF2CC;" parent="1" vertex="1">
          <mxGeometry x="3020" y="2180" width="130" height="60" as="geometry" />
        </mxCell>
        <mxCell id="hRDZXHe7MTuxdJLK6Rt7-504" style="edgeStyle=orthogonalEdgeStyle;curved=1;rounded=0;orthogonalLoop=1;jettySize=auto;html=1;entryX=0.5;entryY=0;entryDx=0;entryDy=0;fillColor=#FFF2CC;" parent="1" source="hRDZXHe7MTuxdJLK6Rt7-488" target="hRDZXHe7MTuxdJLK6Rt7-491" edge="1">
          <mxGeometry relative="1" as="geometry" />
        </mxCell>
        <mxCell id="hRDZXHe7MTuxdJLK6Rt7-507" style="edgeStyle=orthogonalEdgeStyle;curved=1;rounded=0;orthogonalLoop=1;jettySize=auto;html=1;entryX=0;entryY=0.5;entryDx=0;entryDy=0;fillColor=#FFF2CC;" parent="1" source="hRDZXHe7MTuxdJLK6Rt7-488" target="hRDZXHe7MTuxdJLK6Rt7-489" edge="1">
          <mxGeometry relative="1" as="geometry" />
        </mxCell>
        <mxCell id="hRDZXHe7MTuxdJLK6Rt7-488" value="Кнопка &quot;Отмена&quot;" style="rounded=1;whiteSpace=wrap;html=1;fillColor=#FFF2CC;" parent="1" vertex="1">
          <mxGeometry x="2590" y="2280" width="120" height="60" as="geometry" />
        </mxCell>
        <mxCell id="hRDZXHe7MTuxdJLK6Rt7-489" value="При клике возвращает комментарий в исходный вид" style="rounded=1;whiteSpace=wrap;html=1;fillColor=#FFF2CC;" parent="1" vertex="1">
          <mxGeometry x="2800" y="2250" width="120" height="60" as="geometry" />
        </mxCell>
        <mxCell id="hRDZXHe7MTuxdJLK6Rt7-490" value="Кнопка выделена серым цветом" style="rounded=1;whiteSpace=wrap;html=1;fillColor=#FFF2CC;" parent="1" vertex="1">
          <mxGeometry x="2920" y="2410" width="120" height="60" as="geometry" />
        </mxCell>
        <mxCell id="hRDZXHe7MTuxdJLK6Rt7-506" style="edgeStyle=orthogonalEdgeStyle;curved=1;rounded=0;orthogonalLoop=1;jettySize=auto;html=1;entryX=0;entryY=0.5;entryDx=0;entryDy=0;fillColor=#FFF2CC;" parent="1" source="hRDZXHe7MTuxdJLK6Rt7-491" target="hRDZXHe7MTuxdJLK6Rt7-490" edge="1">
          <mxGeometry relative="1" as="geometry" />
        </mxCell>
        <mxCell id="hRDZXHe7MTuxdJLK6Rt7-508" style="edgeStyle=orthogonalEdgeStyle;curved=1;rounded=0;orthogonalLoop=1;jettySize=auto;html=1;entryX=0;entryY=0.75;entryDx=0;entryDy=0;fillColor=#FFF2CC;" parent="1" source="hRDZXHe7MTuxdJLK6Rt7-491" target="hRDZXHe7MTuxdJLK6Rt7-492" edge="1">
          <mxGeometry relative="1" as="geometry" />
        </mxCell>
        <mxCell id="hRDZXHe7MTuxdJLK6Rt7-491" value="По умолчанию активна/кликабельна" style="rounded=1;whiteSpace=wrap;html=1;fillColor=#FFF2CC;" parent="1" vertex="1">
          <mxGeometry x="2730" y="2350" width="120" height="60" as="geometry" />
        </mxCell>
        <mxCell id="hRDZXHe7MTuxdJLK6Rt7-492" value="&lt;meta charset=&quot;utf-8&quot;&gt;&lt;span style=&quot;color: rgb(0, 0, 0); font-family: Helvetica; font-size: 12px; font-style: normal; font-variant-ligatures: normal; font-variant-caps: normal; font-weight: 400; letter-spacing: normal; orphans: 2; text-align: center; text-indent: 0px; text-transform: none; widows: 2; word-spacing: 0px; -webkit-text-stroke-width: 0px; text-decoration-thickness: initial; text-decoration-style: initial; text-decoration-color: initial; float: none; display: inline !important;&quot;&gt;При наведении меняет цвет на синий&lt;/span&gt;" style="rounded=1;whiteSpace=wrap;html=1;fillColor=#FFF2CC;labelBackgroundColor=none;" parent="1" vertex="1">
          <mxGeometry x="2930" y="2300" width="120" height="60" as="geometry" />
        </mxCell>
        <mxCell id="hRDZXHe7MTuxdJLK6Rt7-500" style="edgeStyle=orthogonalEdgeStyle;curved=1;rounded=0;orthogonalLoop=1;jettySize=auto;html=1;fillColor=#FFF2CC;" parent="1" source="hRDZXHe7MTuxdJLK6Rt7-494" target="hRDZXHe7MTuxdJLK6Rt7-473" edge="1">
          <mxGeometry relative="1" as="geometry" />
        </mxCell>
        <mxCell id="hRDZXHe7MTuxdJLK6Rt7-494" value="Кнопка выделена серым цветом" style="rounded=1;whiteSpace=wrap;html=1;fillColor=#FFF2CC;" parent="1" vertex="1">
          <mxGeometry x="2240" y="2290" width="120" height="60" as="geometry" />
        </mxCell>
        <mxCell id="hRDZXHe7MTuxdJLK6Rt7-509" style="edgeStyle=orthogonalEdgeStyle;curved=1;rounded=0;orthogonalLoop=1;jettySize=auto;html=1;entryX=0.445;entryY=0.981;entryDx=0;entryDy=0;entryPerimeter=0;fillColor=#FFF2CC;" parent="1" source="hRDZXHe7MTuxdJLK6Rt7-513" target="hRDZXHe7MTuxdJLK6Rt7-522" edge="1">
          <mxGeometry relative="1" as="geometry" />
        </mxCell>
        <mxCell id="hRDZXHe7MTuxdJLK6Rt7-510" style="edgeStyle=orthogonalEdgeStyle;curved=1;rounded=0;orthogonalLoop=1;jettySize=auto;html=1;entryX=0.5;entryY=1;entryDx=0;entryDy=0;fillColor=#FFF2CC;" parent="1" source="hRDZXHe7MTuxdJLK6Rt7-513" target="hRDZXHe7MTuxdJLK6Rt7-526" edge="1">
          <mxGeometry relative="1" as="geometry" />
        </mxCell>
        <mxCell id="hRDZXHe7MTuxdJLK6Rt7-511" style="edgeStyle=orthogonalEdgeStyle;curved=1;rounded=0;orthogonalLoop=1;jettySize=auto;html=1;fillColor=#FFF2CC;" parent="1" source="hRDZXHe7MTuxdJLK6Rt7-513" target="hRDZXHe7MTuxdJLK6Rt7-530" edge="1">
          <mxGeometry relative="1" as="geometry" />
        </mxCell>
        <mxCell id="hRDZXHe7MTuxdJLK6Rt7-512" style="edgeStyle=orthogonalEdgeStyle;curved=1;rounded=0;orthogonalLoop=1;jettySize=auto;html=1;fillColor=#FFF2CC;" parent="1" source="hRDZXHe7MTuxdJLK6Rt7-513" target="hRDZXHe7MTuxdJLK6Rt7-534" edge="1">
          <mxGeometry relative="1" as="geometry" />
        </mxCell>
        <mxCell id="hRDZXHe7MTuxdJLK6Rt7-513" value="Клик по кнопке выводит всплывающее окно" style="rounded=1;whiteSpace=wrap;html=1;fillColor=#FFF2CC;" parent="1" vertex="1">
          <mxGeometry x="2410" y="2610" width="120" height="60" as="geometry" />
        </mxCell>
        <mxCell id="hRDZXHe7MTuxdJLK6Rt7-514" style="edgeStyle=orthogonalEdgeStyle;curved=1;rounded=0;orthogonalLoop=1;jettySize=auto;html=1;entryX=0.5;entryY=0;entryDx=0;entryDy=0;fillColor=#FFF2CC;" parent="1" source="hRDZXHe7MTuxdJLK6Rt7-515" target="hRDZXHe7MTuxdJLK6Rt7-521" edge="1">
          <mxGeometry relative="1" as="geometry" />
        </mxCell>
        <mxCell id="hRDZXHe7MTuxdJLK6Rt7-515" value="&lt;meta charset=&quot;utf-8&quot;&gt;&lt;span style=&quot;color: rgb(0, 0, 0); font-family: Helvetica; font-size: 12px; font-style: normal; font-variant-ligatures: normal; font-variant-caps: normal; font-weight: 400; letter-spacing: normal; orphans: 2; text-align: center; text-indent: 0px; text-transform: none; widows: 2; word-spacing: 0px; -webkit-text-stroke-width: 0px; text-decoration-thickness: initial; text-decoration-style: initial; text-decoration-color: initial; float: none; display: inline !important;&quot;&gt;Кнопка выделена серым цветом&lt;/span&gt;" style="rounded=1;whiteSpace=wrap;html=1;fillColor=#FFF2CC;labelBackgroundColor=none;" parent="1" vertex="1">
          <mxGeometry x="2340" y="2360" width="120" height="60" as="geometry" />
        </mxCell>
        <mxCell id="hRDZXHe7MTuxdJLK6Rt7-516" style="edgeStyle=orthogonalEdgeStyle;curved=1;rounded=0;orthogonalLoop=1;jettySize=auto;html=1;fillColor=#FFF2CC;" parent="1" source="hRDZXHe7MTuxdJLK6Rt7-517" target="hRDZXHe7MTuxdJLK6Rt7-515" edge="1">
          <mxGeometry relative="1" as="geometry" />
        </mxCell>
        <mxCell id="hRDZXHe7MTuxdJLK6Rt7-541" style="edgeStyle=orthogonalEdgeStyle;curved=1;rounded=0;orthogonalLoop=1;jettySize=auto;html=1;entryX=0;entryY=0.5;entryDx=0;entryDy=0;fillColor=#FFF2CC;" parent="1" source="hRDZXHe7MTuxdJLK6Rt7-517" target="hRDZXHe7MTuxdJLK6Rt7-521" edge="1">
          <mxGeometry relative="1" as="geometry" />
        </mxCell>
        <mxCell id="hRDZXHe7MTuxdJLK6Rt7-517" value="Иконка &quot;урна&quot;" style="rounded=1;whiteSpace=wrap;html=1;fillColor=#FFF2CC;" parent="1" vertex="1">
          <mxGeometry x="2160" y="2390" width="120" height="60" as="geometry" />
        </mxCell>
        <mxCell id="hRDZXHe7MTuxdJLK6Rt7-518" value="&lt;meta charset=&quot;utf-8&quot;&gt;&lt;span style=&quot;color: rgb(0, 0, 0); font-family: Helvetica; font-size: 12px; font-style: normal; font-variant-ligatures: normal; font-variant-caps: normal; font-weight: 400; letter-spacing: normal; orphans: 2; text-align: center; text-indent: 0px; text-transform: none; widows: 2; word-spacing: 0px; -webkit-text-stroke-width: 0px; text-decoration-thickness: initial; text-decoration-style: initial; text-decoration-color: initial; float: none; display: inline !important;&quot;&gt;При наведении меняет цвет на синий&lt;/span&gt;" style="rounded=1;whiteSpace=wrap;html=1;fillColor=#FFF2CC;labelBackgroundColor=none;" parent="1" vertex="1">
          <mxGeometry x="2260" y="2594.23" width="120" height="60" as="geometry" />
        </mxCell>
        <mxCell id="hRDZXHe7MTuxdJLK6Rt7-519" style="edgeStyle=orthogonalEdgeStyle;curved=1;rounded=0;orthogonalLoop=1;jettySize=auto;html=1;entryX=0.5;entryY=0;entryDx=0;entryDy=0;fillColor=#FFF2CC;" parent="1" source="hRDZXHe7MTuxdJLK6Rt7-521" target="hRDZXHe7MTuxdJLK6Rt7-518" edge="1">
          <mxGeometry relative="1" as="geometry" />
        </mxCell>
        <mxCell id="hRDZXHe7MTuxdJLK6Rt7-520" style="edgeStyle=orthogonalEdgeStyle;curved=1;rounded=0;orthogonalLoop=1;jettySize=auto;html=1;fillColor=#FFF2CC;" parent="1" source="hRDZXHe7MTuxdJLK6Rt7-521" target="hRDZXHe7MTuxdJLK6Rt7-513" edge="1">
          <mxGeometry relative="1" as="geometry" />
        </mxCell>
        <mxCell id="hRDZXHe7MTuxdJLK6Rt7-521" value="&lt;meta charset=&quot;utf-8&quot;&gt;&lt;span style=&quot;color: rgb(0, 0, 0); font-family: Helvetica; font-size: 12px; font-style: normal; font-variant-ligatures: normal; font-variant-caps: normal; font-weight: 400; letter-spacing: normal; orphans: 2; text-align: center; text-indent: 0px; text-transform: none; widows: 2; word-spacing: 0px; -webkit-text-stroke-width: 0px; text-decoration-thickness: initial; text-decoration-style: initial; text-decoration-color: initial; float: none; display: inline !important;&quot;&gt;Кликабельна&lt;/span&gt;" style="rounded=1;whiteSpace=wrap;html=1;fillColor=#FFF2CC;gradientColor=none;labelBackgroundColor=none;" parent="1" vertex="1">
          <mxGeometry x="2340" y="2490" width="120" height="60" as="geometry" />
        </mxCell>
        <mxCell id="hRDZXHe7MTuxdJLK6Rt7-522" value="Тайтл, &quot;Удалить комментарий?&quot;" style="rounded=1;whiteSpace=wrap;html=1;fillColor=#FFF2CC;" parent="1" vertex="1">
          <mxGeometry x="2560" y="2490" width="120" height="60" as="geometry" />
        </mxCell>
        <mxCell id="hRDZXHe7MTuxdJLK6Rt7-523" style="edgeStyle=orthogonalEdgeStyle;curved=1;rounded=0;orthogonalLoop=1;jettySize=auto;html=1;entryX=0.5;entryY=1;entryDx=0;entryDy=0;fillColor=#FFF2CC;" parent="1" source="hRDZXHe7MTuxdJLK6Rt7-526" target="hRDZXHe7MTuxdJLK6Rt7-532" edge="1">
          <mxGeometry relative="1" as="geometry" />
        </mxCell>
        <mxCell id="hRDZXHe7MTuxdJLK6Rt7-525" style="edgeStyle=orthogonalEdgeStyle;curved=1;rounded=0;orthogonalLoop=1;jettySize=auto;html=1;entryX=0;entryY=0.5;entryDx=0;entryDy=0;fillColor=#FFF2CC;" parent="1" source="hRDZXHe7MTuxdJLK6Rt7-526" target="hRDZXHe7MTuxdJLK6Rt7-536" edge="1">
          <mxGeometry relative="1" as="geometry" />
        </mxCell>
        <mxCell id="hRDZXHe7MTuxdJLK6Rt7-544" style="edgeStyle=orthogonalEdgeStyle;curved=1;rounded=0;orthogonalLoop=1;jettySize=auto;html=1;entryX=0.5;entryY=1;entryDx=0;entryDy=0;fillColor=#FFF2CC;" parent="1" source="hRDZXHe7MTuxdJLK6Rt7-526" target="hRDZXHe7MTuxdJLK6Rt7-531" edge="1">
          <mxGeometry relative="1" as="geometry" />
        </mxCell>
        <mxCell id="hRDZXHe7MTuxdJLK6Rt7-526" value="Кнопка &quot;отмена&quot;" style="rounded=1;whiteSpace=wrap;html=1;fillColor=#FFF2CC;" parent="1" vertex="1">
          <mxGeometry x="2835" y="2550" width="120" height="60" as="geometry" />
        </mxCell>
        <mxCell id="hRDZXHe7MTuxdJLK6Rt7-528" style="edgeStyle=orthogonalEdgeStyle;curved=1;rounded=0;orthogonalLoop=1;jettySize=auto;html=1;entryX=0;entryY=0.5;entryDx=0;entryDy=0;fillColor=#FFF2CC;" parent="1" source="hRDZXHe7MTuxdJLK6Rt7-530" target="hRDZXHe7MTuxdJLK6Rt7-537" edge="1">
          <mxGeometry relative="1" as="geometry" />
        </mxCell>
        <mxCell id="hRDZXHe7MTuxdJLK6Rt7-546" style="edgeStyle=orthogonalEdgeStyle;curved=1;rounded=0;orthogonalLoop=1;jettySize=auto;html=1;entryX=0.5;entryY=0;entryDx=0;entryDy=0;fillColor=#FFF2CC;" parent="1" source="hRDZXHe7MTuxdJLK6Rt7-530" target="hRDZXHe7MTuxdJLK6Rt7-538" edge="1">
          <mxGeometry relative="1" as="geometry" />
        </mxCell>
        <mxCell id="hRDZXHe7MTuxdJLK6Rt7-549" style="edgeStyle=orthogonalEdgeStyle;curved=1;rounded=0;orthogonalLoop=1;jettySize=auto;html=1;entryX=0.5;entryY=0;entryDx=0;entryDy=0;fillColor=#FFF2CC;" parent="1" source="hRDZXHe7MTuxdJLK6Rt7-530" target="hRDZXHe7MTuxdJLK6Rt7-547" edge="1">
          <mxGeometry relative="1" as="geometry" />
        </mxCell>
        <mxCell id="hRDZXHe7MTuxdJLK6Rt7-530" value="Кнапка &quot;ок&quot;" style="rounded=1;whiteSpace=wrap;html=1;fillColor=#FFF2CC;" parent="1" vertex="1">
          <mxGeometry x="2860" y="2690" width="120" height="60" as="geometry" />
        </mxCell>
        <mxCell id="hRDZXHe7MTuxdJLK6Rt7-531" value="Кнопка выделена серым цветом" style="rounded=1;whiteSpace=wrap;html=1;fillColor=#FFF2CC;" parent="1" vertex="1">
          <mxGeometry x="3130" y="2480" width="120" height="60" as="geometry" />
        </mxCell>
        <mxCell id="hRDZXHe7MTuxdJLK6Rt7-532" value="При наведении меняет цвет на синий" style="rounded=1;whiteSpace=wrap;html=1;fillColor=#FFF2CC;" parent="1" vertex="1">
          <mxGeometry x="2990" y="2480" width="120" height="60" as="geometry" />
        </mxCell>
        <mxCell id="hRDZXHe7MTuxdJLK6Rt7-533" value="" style="edgeStyle=orthogonalEdgeStyle;curved=1;rounded=0;orthogonalLoop=1;jettySize=auto;html=1;fillColor=#FFF2CC;" parent="1" source="hRDZXHe7MTuxdJLK6Rt7-534" target="hRDZXHe7MTuxdJLK6Rt7-535" edge="1">
          <mxGeometry relative="1" as="geometry" />
        </mxCell>
        <mxCell id="hRDZXHe7MTuxdJLK6Rt7-534" value="Крестик" style="rounded=1;whiteSpace=wrap;html=1;fillColor=#FFF2CC;" parent="1" vertex="1">
          <mxGeometry x="2690" y="2534.23" width="120" height="60" as="geometry" />
        </mxCell>
        <mxCell id="hRDZXHe7MTuxdJLK6Rt7-535" value="При нажатии закрывает окно" style="whiteSpace=wrap;html=1;rounded=1;fillColor=#FFF2CC;" parent="1" vertex="1">
          <mxGeometry x="2750" y="2440" width="120" height="60" as="geometry" />
        </mxCell>
        <mxCell id="hRDZXHe7MTuxdJLK6Rt7-536" value="При нажатии закрывает окно" style="whiteSpace=wrap;html=1;rounded=1;fillColor=#FFF2CC;" parent="1" vertex="1">
          <mxGeometry x="3040" y="2610" width="120" height="60" as="geometry" />
        </mxCell>
        <mxCell id="hRDZXHe7MTuxdJLK6Rt7-537" value="Кнопка выделена желтым цветом" style="rounded=1;whiteSpace=wrap;html=1;fillColor=#FFF2CC;" parent="1" vertex="1">
          <mxGeometry x="3070" y="2690" width="120" height="60" as="geometry" />
        </mxCell>
        <mxCell id="hRDZXHe7MTuxdJLK6Rt7-538" value="При наведении меняет цвет на синий" style="rounded=1;whiteSpace=wrap;html=1;fillColor=#FFF2CC;" parent="1" vertex="1">
          <mxGeometry x="3020" y="2800" width="120" height="60" as="geometry" />
        </mxCell>
        <mxCell id="hRDZXHe7MTuxdJLK6Rt7-551" style="edgeStyle=orthogonalEdgeStyle;curved=1;rounded=0;orthogonalLoop=1;jettySize=auto;html=1;entryX=0.5;entryY=0;entryDx=0;entryDy=0;fillColor=#FFF2CC;" parent="1" source="hRDZXHe7MTuxdJLK6Rt7-547" target="hRDZXHe7MTuxdJLK6Rt7-550" edge="1">
          <mxGeometry relative="1" as="geometry" />
        </mxCell>
        <mxCell id="hRDZXHe7MTuxdJLK6Rt7-547" value="При нажатии удаляет комментарий" style="whiteSpace=wrap;html=1;rounded=1;fillColor=#FFF2CC;" parent="1" vertex="1">
          <mxGeometry x="2860" y="2820" width="120" height="60" as="geometry" />
        </mxCell>
        <mxCell id="hRDZXHe7MTuxdJLK6Rt7-550" value="Всплывающее сообщение &quot; Комментарий успешно удален&quot;" style="rounded=1;whiteSpace=wrap;html=1;fillColor=#FFF2CC;" parent="1" vertex="1">
          <mxGeometry x="2930" y="2930" width="120" height="60" as="geometry" />
        </mxCell>
        <mxCell id="hRDZXHe7MTuxdJLK6Rt7-557" style="edgeStyle=orthogonalEdgeStyle;curved=1;rounded=0;orthogonalLoop=1;jettySize=auto;html=1;entryX=1;entryY=0.5;entryDx=0;entryDy=0;fillColor=#E6DFE3;" parent="1" source="hRDZXHe7MTuxdJLK6Rt7-553" target="hRDZXHe7MTuxdJLK6Rt7-174" edge="1">
          <mxGeometry relative="1" as="geometry" />
        </mxCell>
        <mxCell id="hRDZXHe7MTuxdJLK6Rt7-558" style="edgeStyle=orthogonalEdgeStyle;curved=1;rounded=0;orthogonalLoop=1;jettySize=auto;html=1;entryX=0;entryY=0.5;entryDx=0;entryDy=0;fillColor=#E6DFE3;" parent="1" source="hRDZXHe7MTuxdJLK6Rt7-553" target="hRDZXHe7MTuxdJLK6Rt7-144" edge="1">
          <mxGeometry relative="1" as="geometry" />
        </mxCell>
        <mxCell id="hRDZXHe7MTuxdJLK6Rt7-553" value="Выпадающий список" style="rounded=1;whiteSpace=wrap;html=1;fillColor=#E6DFE3;" parent="1" vertex="1">
          <mxGeometry x="690" y="2490" width="120" height="60" as="geometry" />
        </mxCell>
        <mxCell id="hRDZXHe7MTuxdJLK6Rt7-570" value="Чекбокс можно вкл/выкл" style="rounded=1;whiteSpace=wrap;html=1;fillColor=#E6DFE3;" parent="1" vertex="1">
          <mxGeometry x="685" y="2710" width="120" height="60" as="geometry" />
        </mxCell>
        <mxCell id="GKr-sdPwbZHeb-XJPqWH-1" value="Клубы" style="rounded=1;whiteSpace=wrap;html=1;fillColor=#E6DFE3;" parent="1" vertex="1">
          <mxGeometry x="860" y="2690" width="120" height="60" as="geometry" />
        </mxCell>
      </root>
    </mxGraphModel>
  </diagram>
</mxfile>
